<?xml version="1.0" encoding="UTF-8"?>
<!DOCTYPE svg PUBLIC "-//W3C//DTD SVG 1.1//EN" "http://www.w3.org/Graphics/SVG/1.1/DTD/svg11.dtd">
<!-- Creator: CorelDRAW 2021 (64-Bit) -->
<svg xmlns="http://www.w3.org/2000/svg" xml:space="preserve" width="24.8455mm" height="26.0079mm" version="1.1" style="shape-rendering:geometricPrecision; text-rendering:geometricPrecision; image-rendering:optimizeQuality; fill-rule:evenodd; clip-rule:evenodd"
viewBox="0 0 113.12 118.41"
 xmlns:xlink="http://www.w3.org/1999/xlink"
 xmlns:xodm="http://www.corel.com/coreldraw/odm/2003">
 <defs>
  <style type="text/css">
   <![CDATA[
    .fil0 {fill:white}
   ]]>
  </style>
 </defs>
 <g id="Capa_x0020_1">
  <metadata id="CorelCorpID_0Corel-Layer"/>
  <path class="fil0" d="M88.93 13.08c-8.19,-2.36 -26.45,-6.2 -28,-6.2 -2.92,0 -5.84,0 -8.75,0 -1.55,0 -19.81,3.84 -28,6.2 -8.19,2.36 -14.25,16.92 -17.63,20.62l-2.76 11.4 5.23 -3.26c0,0 -2.15,2.8 -5.5,33.81l4.94 -2.01 -0.52 10.66 4.45 0c0,0 16.58,18.35 22.1,24.7 5.52,6.35 6.94,9.4 12.95,9.4 6.08,0 12.16,0 18.24,0 6,0 7.43,-3.05 12.95,-9.4 5.52,-6.35 22.1,-24.7 22.1,-24.7l4.45 0 -0.52 -10.66 4.94 2.01c-3.35,-31.01 -5.5,-33.81 -5.5,-33.81l5.23 3.26 -2.76 -11.4c-3.38,-3.7 -9.44,-18.26 -17.63,-20.62zm-65.23 -6.23c-2.19,-4.09 -6.3,-6.85 -11.01,-6.85 -7.01,0 -12.69,6.09 -12.69,13.61 0,4.39 1.93,8.29 4.94,10.78 2.37,-3.97 5.57,-8.64 9.23,-12.11 -1.39,-2.27 -4.49,-6.02 -9.08,-4.38 0,0 6.16,-5.93 13.13,1.23 0.83,-0.5 1.67,-0.92 2.53,-1.24 0.95,-0.35 1.93,-0.7 2.95,-1.04zm75.24 5.43c3.66,3.47 6.87,8.14 9.24,12.11 3,-2.49 4.94,-6.39 4.94,-10.78 0,-13.93 -17.28,-18.77 -23.7,-6.76 1.02,0.34 2,0.69 2.95,1.04 0.85,0.32 1.7,0.74 2.53,1.24 6.97,-7.16 13.13,-1.23 13.13,-1.23 -4.59,-1.64 -7.69,2.12 -9.08,4.39zm-30.32 38.24c-0.03,2.36 1.7,4.68 4.09,6.39 2.39,1.7 3.87,2 4.6,2 0.73,0 4.03,0 6.84,0 2.81,0 4.88,-2.71 5.47,-4.43 0.58,-1.72 1.72,-6.83 1.72,-6.83 0.26,-2.78 -2.48,-3.63 -3.44,-3.63 -0.96,0 -6.42,0 -10.13,0 -3.71,0 -4.93,-0.11 -6.79,1.15 -1.85,1.27 -2.35,2.99 -2.38,5.35zm14.63 -1.84c0,0 1.15,2.57 -0.46,4.25 -1.61,1.68 -5.02,1.71 -6.94,0.77 -1.92,-0.94 -3.52,-2.44 -3.21,-2.88 0.32,-0.44 4.34,-3.23 5.41,-3.88 1.07,-0.65 3.45,-1.25 5.73,-0.61 2.28,0.65 3.93,2.4 4.18,2.62 0.25,0.22 0.26,0.61 -0.32,1.02 -0.57,0.41 -0.67,0.88 -1.31,0.41 -0.65,-0.48 -2.65,-1.86 -3.07,-1.7zm-35.16 0.91c0,0 -0.05,3.22 -1.2,5.5 -1.15,2.28 -4.69,5.16 -4.69,5.16 0,0 0.12,1 -0.15,2.44 -0.27,1.44 -4.92,24.84 -5.33,27.46 -0.42,2.62 0.05,3.08 2.73,8.16 2.68,5.08 6.76,5.19 9.84,5.19l14.54 0c3.08,0 7.16,-0.11 9.84,-5.19 2.68,-5.08 3.14,-5.54 2.73,-8.16 -0.41,-2.62 -5.06,-26.01 -5.33,-27.46 -0.27,-1.44 -0.15,-2.44 -0.15,-2.44 0,0 -3.54,-2.88 -4.69,-5.16 -1.15,-2.28 -1.2,-5.5 -1.2,-5.5 -4.13,-1.9 -12.81,-1.9 -16.94,0zm-5 31.26c0,-2.7 2.14,-2.45 4.05,-2.45l18.83 0c1.91,0 4.05,-0.25 4.05,2.45 0,0.19 -0.03,0.41 -0.08,0.64 -0.03,0.07 -0.63,1.65 -1.84,3.38 -1.24,1.78 -1.84,2.36 -2.28,1.78 -0.44,-0.58 -2.49,-2.22 -3.84,-0.55 -1.34,1.67 -0.34,3.93 0.44,4.22 0.78,0.29 1.69,0.26 0.7,1.58 -6.68,7.42 -6.48,7.42 -13.16,0 -0.99,-1.32 -0.08,-1.29 0.7,-1.58 0.78,-0.29 1.79,-2.55 0.44,-4.22 -1.34,-1.67 -3.4,-0.03 -3.84,0.55 -0.44,0.58 -1.04,-0.01 -2.28,-1.78 -1.21,-1.74 -1.82,-3.32 -1.84,-3.38 -0.05,-0.24 -0.08,-0.45 -0.08,-0.64zm1.4 -30.32c-0.03,-2.36 -0.52,-4.09 -2.38,-5.35 -1.85,-1.27 -3.08,-1.15 -6.79,-1.15 -3.71,0 -9.16,0 -10.13,0 -0.96,0 -3.7,0.85 -3.44,3.63 0,0 1.14,5.11 1.72,6.83 0.58,1.72 2.65,4.43 5.47,4.43 2.81,0 6.12,0 6.84,0 0.73,0 2.21,-0.29 4.6,-2 2.39,-1.7 4.12,-4.02 4.09,-6.39zm-9.43 -3.58c1.07,0.65 5.09,3.44 5.41,3.88 0.32,0.44 -1.29,1.94 -3.21,2.88 -1.92,0.94 -5.33,0.91 -6.94,-0.77 -1.61,-1.68 -0.46,-4.25 -0.46,-4.25 -0.42,-0.17 -2.42,1.22 -3.07,1.7 -0.65,0.48 -0.74,0 -1.31,-0.41 -0.57,-0.41 -0.57,-0.8 -0.32,-1.02 0.25,-0.22 1.9,-1.97 4.18,-2.62 2.28,-0.65 4.66,-0.04 5.73,0.61zm-9.89 -6.33c2.46,0 11.46,0 13.33,0 1.86,0 5.25,0.36 7.4,2.93 0.69,0.83 1.12,1.58 1.38,2.22 2.35,-1.04 6.42,-1.31 7,-1.31 1.51,0 3.03,0 4.54,0 0.57,0 4.64,0.27 7,1.31 0.26,-0.64 0.69,-1.39 1.38,-2.22 2.15,-2.57 5.54,-2.93 7.4,-2.93 1.86,0 10.86,0 13.33,0 2.46,0 4.6,0.72 6,3.11 1.4,2.39 0.85,3.77 -0.06,9.04 -0.91,5.27 -3.65,8.09 -7.59,9.13 -2.99,0.79 -7.11,0.54 -8.92,0.38l5.71 31.42c0,0 -4.52,11.21 -10.09,14.02 -5.94,3 -26.91,3 -32.85,0 -5.57,-2.81 -10.09,-14.02 -10.09,-14.02l5.71 -31.42c-1.82,0.17 -5.93,0.41 -8.92,-0.38 -3.95,-1.04 -6.69,-3.86 -7.59,-9.13 -0.91,-5.27 -1.47,-6.65 -0.06,-9.04 1.4,-2.39 3.54,-3.11 6,-3.11z"/>
 </g>
</svg>
