<?xml version="1.0" encoding="UTF-8"?>
<!DOCTYPE svg PUBLIC "-//W3C//DTD SVG 1.1//EN" "http://www.w3.org/Graphics/SVG/1.1/DTD/svg11.dtd">
<!-- Creator: CorelDRAW 2021 (64-Bit) -->
<svg xmlns="http://www.w3.org/2000/svg" xml:space="preserve" width="72.9459mm" height="58.5519mm" version="1.1" style="shape-rendering:geometricPrecision; text-rendering:geometricPrecision; image-rendering:optimizeQuality; fill-rule:evenodd; clip-rule:evenodd"
viewBox="0 0 632.47 507.67"
 xmlns:xlink="http://www.w3.org/1999/xlink"
 xmlns:xodm="http://www.corel.com/coreldraw/odm/2003">
 <defs>
  <style type="text/css">
   <![CDATA[
    .fil0 {fill:white}
   ]]>
  </style>
 </defs>
 <g id="Capa_x0020_1">
  <metadata id="CorelCorpID_0Corel-Layer"/>
  <path class="fil0" d="M411.49 38.49c-24.08,-6.95 -77.83,-18.23 -82.38,-18.23 -8.59,0 -17.17,0 -25.76,0 -4.55,0 -58.3,11.29 -82.38,18.23 -24.08,6.95 -41.92,49.79 -51.87,60.67l-8.12 33.55 15.38 -9.59c0,0 -6.32,8.25 -16.18,99.48l14.53 -5.92 -1.52 31.37 13.1 0c0,0 48.78,53.99 65.02,72.68 16.24,18.69 20.43,27.67 38.09,27.67 17.89,0 35.78,0 53.67,0 17.67,0 21.86,-8.98 38.09,-27.67 16.24,-18.69 65.02,-72.68 65.02,-72.68l13.1 0 -1.52 -31.37 14.53 5.92c-9.86,-91.23 -16.18,-99.48 -16.18,-99.48l15.38 9.59 -8.12 -33.55c-9.96,-10.88 -27.79,-53.73 -51.87,-60.67zm-205.71 375.56c0,-1.04 0.35,-1.83 1.04,-2.35 0.69,-0.52 1.66,-1.01 2.94,-1.48l11.43 -3.98c0.17,-0.03 0.34,-0.05 0.49,-0.05 0.15,0 0.29,0 0.42,0 1.24,0 2.08,0.35 2.5,1.08 0.42,0.72 0.62,1.68 0.62,2.85l-0.05 13.85 6.9 0c1.07,0 1.95,0.32 2.62,0.96 0.67,0.64 1.01,1.59 1.01,2.87l0 9.72c0,1.41 -0.33,2.43 -1.01,3.09 -0.67,0.65 -1.54,0.99 -2.62,0.99l-6.9 0 0.05 42.5c0,1.28 -0.37,2.23 -1.11,2.89 -0.74,0.65 -1.76,0.99 -3.07,0.99l-11.38 0c-2.59,0 -3.88,-1.29 -3.88,-3.88l-0.05 -42.5 -5.19 0c-2.59,0 -3.88,-1.36 -3.88,-4.08l0 -9.72c0,-2.55 1.29,-3.83 3.88,-3.83l5.19 0 0.05 -9.92zm376.27 13.73c0,-0.64 0.12,-1.19 0.35,-1.66 0.23,-0.47 0.55,-0.86 0.94,-1.16 0.39,-0.3 0.82,-0.54 1.31,-0.69 0.49,-0.15 0.96,-0.22 1.43,-0.22l7.6 0c0.84,0 1.51,0.25 2.01,0.76 0.5,0.5 0.94,1.14 1.29,1.91 0.35,0.77 0.65,1.63 0.92,2.57 0.27,0.94 0.59,1.85 0.96,2.72 1.01,-1.12 2.01,-2.22 3.01,-3.29 0.99,-1.08 2.05,-2.03 3.19,-2.87 1.14,-0.86 2.4,-1.53 3.76,-2.05 1.36,-0.52 2.9,-0.79 4.65,-0.79 1.81,0 3.44,0.13 4.87,0.4 1.43,0.27 2.77,0.67 4.05,1.19 1.28,0.52 2.55,1.18 3.81,2 1.26,0.81 2.62,1.75 4.1,2.82 1.44,0.84 2.16,1.83 2.16,2.99 0,0.74 -0.29,1.59 -0.86,2.57l-4.58 7.82c-0.91,1.31 -2.03,1.96 -3.37,1.96 -0.67,0 -1.43,-0.18 -2.27,-0.55 -1.44,-1.41 -2.9,-2.47 -4.4,-3.16 -1.49,-0.69 -3.21,-1.02 -5.12,-1.02 -1.31,0 -2.45,0.18 -3.44,0.55 -0.99,0.37 -1.9,0.89 -2.7,1.56 -0.81,0.67 -1.56,1.48 -2.27,2.42 -0.7,0.94 -1.41,1.98 -2.12,3.12l0 36.46c0,1.28 -0.3,2.23 -0.92,2.89 -0.62,0.65 -1.66,0.99 -3.11,0.99l-11.33 0c-2.62,0 -3.93,-1.29 -3.93,-3.88l0 -56.37zm-8.12 56.5c0,0.57 -0.1,1.11 -0.3,1.63 -0.2,0.52 -0.54,0.94 -1.01,1.24 -0.37,0.37 -0.81,0.6 -1.31,0.7 -0.5,0.1 -0.94,0.15 -1.31,0.15l-9.92 0c-0.7,0 -1.28,-0.1 -1.71,-0.29 -0.44,-0.18 -0.79,-0.44 -1.06,-0.77 -0.27,-0.34 -0.49,-0.76 -0.67,-1.24 -0.18,-0.49 -0.39,-1.01 -0.59,-1.58l-0.65 -2.27c-0.91,0.91 -1.93,1.8 -3.09,2.67 -1.16,0.87 -2.43,1.66 -3.83,2.35 -1.39,0.69 -2.89,1.24 -4.48,1.66 -1.6,0.42 -3.26,0.64 -4.97,0.64 -3.06,0 -5.98,-0.39 -8.78,-1.16 -2.8,-0.77 -5.42,-1.88 -7.86,-3.31 -2.43,-1.43 -4.65,-3.14 -6.63,-5.14 -1.98,-2 -3.68,-4.23 -5.1,-6.68 -1.43,-2.45 -2.53,-5.1 -3.31,-7.94 -0.77,-2.84 -1.16,-5.79 -1.16,-8.9 0,-4.67 0.86,-9 2.57,-13.03 1.71,-4.01 4.05,-7.5 7,-10.47 2.95,-2.97 6.43,-5.3 10.42,-7 4,-1.7 8.28,-2.55 12.84,-2.55 2.08,0 4.03,0.23 5.82,0.7 1.8,0.47 3.44,1.11 4.94,1.91 1.49,0.82 2.84,1.78 4.05,2.9 1.21,1.14 2.27,2.35 3.17,3.68l1.46 -4.63c0.34,-0.84 0.62,-1.53 0.84,-2.07 0.22,-0.52 0.45,-0.91 0.71,-1.16 0.25,-0.25 0.55,-0.42 0.92,-0.5 0.37,-0.08 0.89,-0.13 1.56,-0.13l7.5 0c0.37,0 0.81,0.05 1.31,0.15 0.5,0.1 0.94,0.34 1.31,0.71 0.47,0.37 0.81,0.79 1.01,1.26 0.2,0.47 0.3,1.01 0.3,1.61l0 56.84zm-49.6 -28.22c0,2.22 0.35,4.3 1.04,6.21 0.69,1.93 1.66,3.61 2.94,5 1.28,1.41 2.82,2.54 4.62,3.36 1.8,0.82 3.78,1.23 5.96,1.23 2.25,0 4.35,-0.4 6.28,-1.23 1.93,-0.82 3.61,-1.95 5.03,-3.36 1.43,-1.39 2.54,-3.07 3.34,-5 0.81,-1.91 1.21,-4 1.21,-6.21 0,-2.13 -0.4,-4.18 -1.21,-6.13 -0.81,-1.95 -1.91,-3.66 -3.34,-5.12 -1.43,-1.48 -3.1,-2.65 -5.03,-3.51 -1.93,-0.86 -4.03,-1.28 -6.28,-1.28 -2.18,0 -4.16,0.42 -5.96,1.28 -1.8,0.86 -3.34,2.03 -4.62,3.51 -1.28,1.46 -2.25,3.17 -2.94,5.12 -0.69,1.95 -1.04,4 -1.04,6.13zm-45.39 -47.2c0,-1.07 0.27,-1.98 0.81,-2.72 0.54,-0.74 1.46,-1.11 2.77,-1.11l12.34 0c0.34,0 0.69,0.08 1.06,0.27 0.37,0.18 0.72,0.45 1.04,0.79 0.32,0.34 0.59,0.74 0.81,1.21 0.22,0.47 0.32,0.99 0.32,1.56l0 75.24c0,1.28 -0.35,2.23 -1.07,2.89 -0.72,0.65 -1.66,0.99 -2.8,0.99l-11.68 0c-1.31,0 -2.23,-0.34 -2.77,-0.99 -0.54,-0.65 -0.81,-1.61 -0.81,-2.89l0 -75.24zm-74.24 47.2c0,-3.09 0.4,-6.06 1.19,-8.91 0.79,-2.85 1.9,-5.51 3.32,-7.94 1.43,-2.43 3.14,-4.65 5.14,-6.65 2,-2 4.21,-3.71 6.66,-5.12 2.45,-1.41 5.1,-2.5 7.94,-3.27 2.84,-0.77 5.79,-1.16 8.88,-1.16 4.57,0 8.86,0.86 12.88,2.55 4.01,1.7 7.5,4.03 10.47,7 2.97,2.97 5.32,6.46 7.05,10.47 1.73,4.03 2.59,8.36 2.59,13.03 0,3.11 -0.39,6.06 -1.17,8.9 -0.79,2.84 -1.9,5.49 -3.32,7.94 -1.43,2.45 -3.14,4.68 -5.14,6.68 -2,2 -4.23,3.71 -6.68,5.14 -2.45,1.43 -5.07,2.53 -7.87,3.31 -2.8,0.77 -5.74,1.16 -8.8,1.16 -3.09,0 -6.04,-0.39 -8.88,-1.16 -2.84,-0.77 -5.49,-1.88 -7.94,-3.31 -2.45,-1.43 -4.67,-3.14 -6.66,-5.14 -2,-2 -3.71,-4.23 -5.14,-6.68 -1.43,-2.45 -2.53,-5.1 -3.32,-7.94 -0.79,-2.84 -1.19,-5.79 -1.19,-8.9zm18.38 0c0,2.22 0.35,4.3 1.04,6.21 0.69,1.93 1.66,3.61 2.92,5 1.26,1.41 2.79,2.54 4.58,3.36 1.8,0.82 3.81,1.23 6.06,1.23 2.18,0 4.16,-0.4 5.93,-1.23 1.76,-0.82 3.26,-1.95 4.48,-3.36 1.23,-1.39 2.16,-3.07 2.82,-5 0.65,-1.91 0.97,-4 0.97,-6.21 0,-2.13 -0.32,-4.18 -0.97,-6.13 -0.66,-1.95 -1.59,-3.66 -2.82,-5.12 -1.23,-1.48 -2.72,-2.65 -4.48,-3.51 -1.76,-0.86 -3.74,-1.28 -5.93,-1.28 -2.25,0 -4.26,0.42 -6.06,1.28 -1.8,0.86 -3.32,2.03 -4.58,3.51 -1.26,1.46 -2.23,3.17 -2.92,5.12 -0.69,1.95 -1.04,4 -1.04,6.13zm-91.97 -31.49c0.44,-0.37 0.89,-0.6 1.36,-0.71 0.47,-0.1 0.92,-0.15 1.36,-0.15l7.57 0c0.64,0 1.17,0.1 1.59,0.3 0.4,0.2 0.76,0.49 1.02,0.84 0.27,0.35 0.49,0.76 0.67,1.23 0.18,0.45 0.37,0.96 0.54,1.49l2.1 6.14c0.94,-1.21 1.9,-2.45 2.85,-3.71 0.96,-1.26 2.08,-2.42 3.39,-3.44 1.31,-1.02 2.87,-1.88 4.68,-2.55 1.81,-0.67 4.03,-1.01 6.65,-1.01 4.6,0 8.85,0.86 12.72,2.55 3.88,1.7 7.22,4.03 10.02,7 2.8,2.97 4.99,6.46 6.56,10.47 1.58,4.03 2.37,8.36 2.37,13.03 0,4.65 -0.79,8.98 -2.37,13.01 -1.58,4.03 -3.76,7.54 -6.56,10.51 -2.8,2.97 -6.14,5.32 -10.02,7.03 -3.88,1.71 -8.12,2.57 -12.72,2.57 -2.18,0 -4.06,-0.27 -5.64,-0.79 -1.58,-0.52 -2.97,-1.19 -4.2,-2.03 -1.23,-0.84 -2.32,-1.76 -3.26,-2.77 -0.94,-1.01 -1.86,-2.01 -2.77,-3.02l0 23.47c0,1.01 -0.3,1.86 -0.91,2.57 -0.6,0.71 -1.54,1.06 -2.8,1.06l-11.5 0c-0.4,0 -0.84,-0.08 -1.31,-0.25 -0.47,-0.17 -0.91,-0.4 -1.31,-0.7 -0.4,-0.3 -0.74,-0.69 -1.01,-1.14 -0.27,-0.45 -0.4,-0.96 -0.4,-1.53l0 -76.6c0,-0.67 0.13,-1.23 0.39,-1.66 0.25,-0.44 0.55,-0.84 0.92,-1.21zm47.03 31.52c0,-2.15 -0.35,-4.2 -1.06,-6.13 -0.71,-1.93 -1.7,-3.61 -2.97,-5.05 -1.28,-1.44 -2.8,-2.59 -4.58,-3.42 -1.78,-0.84 -3.74,-1.26 -5.89,-1.26 -2.12,0 -4.11,0.39 -6.01,1.17 -1.9,0.79 -3.56,1.86 -4.99,3.22 -1.43,1.36 -2.58,2.97 -3.47,4.82 -0.89,1.85 -1.39,3.81 -1.49,5.89l0 0.76c0,2.22 0.42,4.3 1.26,6.24 0.84,1.95 1.98,3.63 3.43,5.05 1.44,1.43 3.14,2.57 5.09,3.41 1.95,0.84 4.01,1.26 6.19,1.26 2.15,0 4.11,-0.42 5.89,-1.26 1.78,-0.84 3.31,-1.98 4.58,-3.41 1.28,-1.43 2.27,-3.11 2.97,-5.05 0.7,-1.95 1.06,-4.03 1.06,-6.24zm-75.8 -28.15c0,-1.07 0.3,-2 0.91,-2.77 0.6,-0.77 1.55,-1.16 2.82,-1.16l11.53 0c0.4,0 0.84,0.08 1.31,0.27 0.47,0.18 0.91,0.45 1.31,0.81 0.4,0.35 0.76,0.77 1.04,1.24 0.29,0.47 0.42,1.01 0.42,1.61l0 56.15c0,1.28 -0.35,2.23 -1.06,2.89 -0.7,0.65 -1.71,0.99 -3.02,0.99l-11.53 0c-2.48,0 -3.73,-1.29 -3.73,-3.88l0 -56.15zm0 -25.48c0,-1.41 0.3,-2.42 0.91,-3.01 0.6,-0.59 1.55,-0.87 2.82,-0.87l11.68 0c1.18,0 2.13,0.29 2.85,0.87 0.72,0.59 1.08,1.6 1.08,3.01l0 9.82c0,0.4 -0.08,0.84 -0.27,1.31 -0.18,0.47 -0.45,0.92 -0.79,1.36 -0.34,0.44 -0.74,0.79 -1.23,1.07 -0.49,0.29 -1.04,0.44 -1.64,0.44l-11.68 0c-2.48,0 -3.73,-1.39 -3.73,-4.18l0 -9.82zm-58.53 25.31c0,-0.64 0.12,-1.19 0.35,-1.66 0.23,-0.47 0.55,-0.86 0.94,-1.16 0.39,-0.3 0.82,-0.54 1.31,-0.69 0.49,-0.15 0.96,-0.22 1.43,-0.22l7.6 0c0.84,0 1.51,0.25 2.01,0.76 0.5,0.5 0.94,1.14 1.29,1.91 0.35,0.77 0.65,1.63 0.92,2.57 0.27,0.94 0.59,1.85 0.96,2.72 1.01,-1.12 2.02,-2.22 3.01,-3.29 0.99,-1.08 2.05,-2.03 3.19,-2.87 1.14,-0.86 2.4,-1.53 3.76,-2.05 1.36,-0.52 2.9,-0.79 4.65,-0.79 1.81,0 3.44,0.13 4.87,0.4 1.43,0.27 2.77,0.67 4.05,1.19 1.28,0.52 2.55,1.18 3.81,2 1.26,0.81 2.62,1.75 4.1,2.82 1.44,0.84 2.16,1.83 2.16,2.99 0,0.74 -0.29,1.59 -0.86,2.57l-4.58 7.82c-0.91,1.31 -2.03,1.96 -3.37,1.96 -0.67,0 -1.43,-0.18 -2.27,-0.55 -1.44,-1.41 -2.9,-2.47 -4.4,-3.16 -1.49,-0.69 -3.21,-1.02 -5.12,-1.02 -1.31,0 -2.45,0.18 -3.44,0.55 -0.99,0.37 -1.9,0.89 -2.7,1.56 -0.81,0.67 -1.56,1.48 -2.27,2.42 -0.71,0.94 -1.41,1.98 -2.12,3.12l0 36.46c0,1.28 -0.3,2.23 -0.92,2.89 -0.62,0.65 -1.66,0.99 -3.1,0.99l-11.33 0c-2.62,0 -3.93,-1.29 -3.93,-3.88l0 -56.37zm-243.82 28.29c0,-3.09 0.4,-6.06 1.19,-8.91 0.79,-2.85 1.9,-5.51 3.32,-7.94 1.43,-2.43 3.14,-4.65 5.14,-6.65 2,-2 4.21,-3.71 6.66,-5.12 2.45,-1.41 5.1,-2.5 7.94,-3.27 2.84,-0.77 5.79,-1.16 8.88,-1.16 4.57,0 8.86,0.86 12.88,2.55 4.01,1.7 7.5,4.03 10.47,7 2.97,2.97 5.32,6.46 7.05,10.47 1.73,4.03 2.59,8.36 2.59,13.03 0,3.11 -0.39,6.06 -1.17,8.9 -0.79,2.84 -1.9,5.49 -3.32,7.94 -1.43,2.45 -3.14,4.68 -5.14,6.68 -2,2 -4.23,3.71 -6.68,5.14 -2.45,1.43 -5.07,2.53 -7.87,3.31 -2.8,0.77 -5.74,1.16 -8.8,1.16 -3.09,0 -6.04,-0.39 -8.88,-1.16 -2.84,-0.77 -5.49,-1.88 -7.94,-3.31 -2.45,-1.43 -4.67,-3.14 -6.66,-5.14 -2,-2 -3.71,-4.23 -5.14,-6.68 -1.43,-2.45 -2.53,-5.1 -3.32,-7.94 -0.79,-2.84 -1.19,-5.79 -1.19,-8.9zm123.15 0c0,-3.09 0.4,-6.06 1.19,-8.91 0.79,-2.85 1.9,-5.51 3.32,-7.94 1.43,-2.43 3.14,-4.65 5.14,-6.65 2,-2 4.21,-3.71 6.66,-5.12 2.45,-1.41 5.1,-2.5 7.94,-3.27 2.84,-0.77 5.79,-1.16 8.88,-1.16 4.57,0 8.86,0.86 12.88,2.55 4.01,1.7 7.5,4.03 10.47,7 2.97,2.97 5.32,6.46 7.05,10.47 1.73,4.03 2.59,8.36 2.59,13.03 0,3.11 -0.39,6.06 -1.17,8.9 -0.79,2.84 -1.9,5.49 -3.32,7.94 -1.43,2.45 -3.14,4.68 -5.14,6.68 -2,2 -4.23,3.71 -6.68,5.14 -2.45,1.43 -5.07,2.53 -7.87,3.31 -2.8,0.77 -5.74,1.16 -8.8,1.16 -3.09,0 -6.04,-0.39 -8.88,-1.16 -2.84,-0.77 -5.49,-1.88 -7.94,-3.31 -2.45,-1.43 -4.67,-3.14 -6.66,-5.14 -2,-2 -3.71,-4.23 -5.14,-6.68 -1.43,-2.45 -2.53,-5.1 -3.32,-7.94 -0.79,-2.84 -1.19,-5.79 -1.19,-8.9zm18.38 0c0,2.22 0.35,4.3 1.04,6.21 0.69,1.93 1.66,3.61 2.92,5 1.26,1.41 2.79,2.54 4.58,3.36 1.8,0.82 3.81,1.23 6.06,1.23 2.18,0 4.16,-0.4 5.93,-1.23 1.76,-0.82 3.26,-1.95 4.48,-3.36 1.23,-1.39 2.16,-3.07 2.82,-5 0.66,-1.91 0.97,-4 0.97,-6.21 0,-2.13 -0.32,-4.18 -0.97,-6.13 -0.65,-1.95 -1.59,-3.66 -2.82,-5.12 -1.23,-1.48 -2.72,-2.65 -4.48,-3.51 -1.76,-0.86 -3.74,-1.28 -5.93,-1.28 -2.25,0 -4.26,0.42 -6.06,1.28 -1.8,0.86 -3.32,2.03 -4.58,3.51 -1.26,1.46 -2.23,3.17 -2.92,5.12 -0.69,1.95 -1.04,4 -1.04,6.13zm-60.49 12.02c0.91,0.91 1.9,1.66 2.95,2.28 1.06,0.62 2.07,1.12 3.04,1.51 0.97,0.39 1.83,0.67 2.57,0.84 0.74,0.17 1.24,0.25 1.51,0.25 0.64,0 1.46,-0.03 2.45,-0.08 0.99,-0.05 1.93,-0.2 2.84,-0.45 0.91,-0.25 1.7,-0.65 2.35,-1.23 0.65,-0.57 0.97,-1.38 0.97,-2.42 0,-0.94 -0.18,-1.7 -0.55,-2.25 -0.37,-0.55 -0.91,-1.02 -1.61,-1.41 -0.71,-0.39 -1.56,-0.72 -2.59,-1.02 -1.02,-0.3 -2.18,-0.65 -3.46,-1.06 -4.03,-1.08 -7.35,-2.37 -9.97,-3.88 -2.62,-1.51 -4.68,-3.21 -6.21,-5.07 -1.53,-1.86 -2.6,-3.86 -3.21,-6.01 -0.6,-2.15 -0.91,-4.41 -0.91,-6.8 0,-2.79 0.55,-5.32 1.66,-7.6 1.11,-2.28 2.69,-4.25 4.73,-5.88 2.05,-1.63 4.5,-2.89 7.35,-3.78 2.85,-0.89 6.03,-1.33 9.52,-1.33 2.12,0 4.1,0.17 5.94,0.52 1.85,0.35 3.61,0.91 5.29,1.66 1.68,0.76 3.32,1.73 4.92,2.92 1.6,1.19 3.17,2.62 4.75,4.26 0.57,0.67 0.87,1.29 0.89,1.88 0.02,0.59 -0.37,1.23 -1.14,1.9 -1.31,1.07 -2.55,2.13 -3.74,3.17 -1.19,1.04 -2.43,2.2 -3.71,3.47 -0.4,0.34 -0.81,0.54 -1.21,0.62 -0.4,0.08 -0.79,0.08 -1.16,-0.02 -0.37,-0.1 -0.72,-0.27 -1.06,-0.5 -0.34,-0.23 -0.64,-0.52 -0.91,-0.86 -1.18,-1.31 -2.52,-2.2 -4.03,-2.65 -1.51,-0.45 -2.92,-0.67 -4.23,-0.67 -1.64,0 -2.95,0.29 -3.93,0.86 -0.97,0.57 -1.43,1.44 -1.36,2.62 0.07,0.87 0.4,1.55 0.99,2.03 0.59,0.49 1.31,0.89 2.16,1.19 0.86,0.3 1.76,0.54 2.72,0.72 0.96,0.18 1.83,0.4 2.64,0.64 3.02,0.97 5.79,2.03 8.31,3.17 2.52,1.14 4.7,2.53 6.55,4.2 1.85,1.66 3.29,3.66 4.31,5.98 1.02,2.32 1.53,5.14 1.53,8.46 0,3.32 -0.66,6.29 -1.98,8.91 -1.33,2.62 -3.16,4.82 -5.47,6.6 -2.32,1.78 -5.05,3.14 -8.23,4.08 -3.17,0.94 -6.6,1.41 -10.26,1.41 -2.08,0 -4.2,-0.19 -6.34,-0.55 -2.15,-0.37 -4.23,-0.97 -6.25,-1.8 -2.01,-0.82 -3.93,-1.88 -5.74,-3.17 -1.81,-1.29 -3.42,-2.85 -4.83,-4.7 -0.37,-0.47 -0.64,-0.97 -0.82,-1.49 -0.18,-0.52 -0.27,-1.02 -0.25,-1.53 0.02,-0.5 0.12,-0.97 0.3,-1.39 0.18,-0.42 0.47,-0.77 0.87,-1.07l6.5 -6.5c0.81,-0.67 1.53,-0.91 2.15,-0.71 0.62,0.2 1.41,0.77 2.38,1.71zm-62.66 -12.02c0,2.22 0.35,4.3 1.04,6.21 0.69,1.93 1.66,3.61 2.92,5 1.26,1.41 2.79,2.54 4.58,3.36 1.8,0.82 3.81,1.23 6.06,1.23 2.18,0 4.16,-0.4 5.93,-1.23 1.76,-0.82 3.26,-1.95 4.48,-3.36 1.23,-1.39 2.16,-3.07 2.82,-5 0.66,-1.91 0.97,-4 0.97,-6.21 0,-2.13 -0.32,-4.18 -0.97,-6.13 -0.65,-1.95 -1.59,-3.66 -2.82,-5.12 -1.23,-1.48 -2.72,-2.65 -4.48,-3.51 -1.76,-0.86 -3.74,-1.28 -5.93,-1.28 -2.25,0 -4.26,0.42 -6.06,1.28 -1.8,0.86 -3.32,2.03 -4.58,3.51 -1.26,1.46 -2.23,3.17 -2.92,5.12 -0.69,1.95 -1.04,4 -1.04,6.13zm201.17 -435.91c-6.44,-12.04 -18.54,-20.16 -32.4,-20.16 -20.62,0 -37.33,17.93 -37.33,40.05 0,12.91 5.69,24.39 14.53,31.72 6.97,-11.69 16.4,-25.43 27.17,-35.64 -4.09,-6.67 -13.21,-17.72 -26.72,-12.9 0,0 18.13,-17.46 38.64,3.62 2.44,-1.48 4.92,-2.71 7.43,-3.64 2.78,-1.03 5.68,-2.05 8.67,-3.05zm221.39 15.98c10.77,10.21 20.21,23.94 27.17,35.63 8.84,-7.32 14.53,-18.81 14.53,-31.72 0,-41 -50.86,-55.21 -69.73,-19.9 2.99,1 5.89,2.02 8.67,3.05 2.51,0.93 4.99,2.17 7.43,3.64 20.51,-21.07 38.64,-3.62 38.64,-3.62 -13.51,-4.82 -22.62,6.23 -26.72,12.91zm-89.21 112.51c-0.09,6.95 5,13.77 12.04,18.79 7.04,5.02 11.39,5.87 13.54,5.87 2.14,0 11.87,0 20.14,0 8.27,0 14.36,-7.98 16.08,-13.04 1.72,-5.06 5.07,-20.09 5.07,-20.09 0.76,-8.18 -7.28,-10.68 -10.12,-10.68 -2.84,0 -18.88,0 -29.79,0 -10.92,0 -14.51,-0.33 -19.97,3.39 -5.46,3.73 -6.91,8.8 -6.99,15.75zm43.04 -5.43c0,0 3.39,7.56 -1.34,12.51 -4.74,4.95 -14.77,5.02 -20.43,2.26 -5.66,-2.76 -10.37,-7.17 -9.44,-8.47 0.93,-1.29 12.78,-9.52 15.91,-11.42 3.14,-1.91 10.14,-3.69 16.85,-1.78 6.7,1.91 11.56,7.06 12.29,7.71 0.73,0.65 0.75,1.79 -0.94,2.99 -1.69,1.2 -1.97,2.6 -3.87,1.2 -1.9,-1.41 -7.81,-5.49 -9.03,-4.99zm-103.46 2.69c0,0 -0.14,9.47 -3.53,16.18 -3.39,6.71 -13.79,15.18 -13.79,15.18 0,0 0.36,2.94 -0.45,7.18 -0.81,4.24 -14.47,73.08 -15.69,80.79 -1.22,7.71 0.15,9.05 8.03,24 7.87,14.95 19.88,15.27 28.95,15.27l42.78 0c9.07,0 21.08,-0.33 28.95,-15.27 7.87,-14.95 9.25,-16.3 8.03,-24 -1.22,-7.71 -14.88,-76.55 -15.69,-80.79 -0.81,-4.24 -0.45,-7.18 -0.45,-7.18 0,0 -10.4,-8.48 -13.79,-15.18 -3.39,-6.71 -3.53,-16.18 -3.53,-16.18 -12.15,-5.58 -37.69,-5.58 -49.84,0zm-14.71 91.96c0,-7.94 6.31,-7.22 11.93,-7.22l55.4 0c5.62,0 11.93,-0.72 11.93,7.22 0,0.56 -0.08,1.2 -0.23,1.89 -0.08,0.2 -1.86,4.84 -5.42,9.96 -3.64,5.23 -5.41,6.96 -6.7,5.25 -1.28,-1.71 -7.34,-6.52 -11.3,-1.62 -3.95,4.9 -1,11.56 1.3,12.41 2.3,0.85 4.98,0.76 2.07,4.64 -19.65,21.82 -19.06,21.82 -38.71,0 -2.92,-3.88 -0.23,-3.79 2.07,-4.64 2.3,-0.85 5.26,-7.51 1.3,-12.41 -3.95,-4.9 -10.01,-0.09 -11.29,1.62 -1.28,1.71 -3.06,-0.02 -6.7,-5.25 -3.56,-5.11 -5.35,-9.76 -5.42,-9.96 -0.15,-0.69 -0.23,-1.33 -0.23,-1.89zm4.13 -89.22c-0.09,-6.95 -1.54,-12.02 -6.99,-15.75 -5.46,-3.73 -9.05,-3.39 -19.97,-3.39 -10.92,0 -26.96,0 -29.79,0 -2.84,0 -10.88,2.5 -10.12,10.68 0,0 3.35,15.03 5.07,20.09 1.72,5.06 7.81,13.04 16.08,13.04 8.27,0 18,0 20.14,0 2.14,0 6.5,-0.85 13.54,-5.87 7.04,-5.01 12.13,-11.83 12.04,-18.79zm-27.74 -10.54c3.14,1.91 14.98,10.13 15.91,11.42 0.93,1.29 -3.78,5.71 -9.44,8.47 -5.66,2.76 -15.69,2.69 -20.43,-2.26 -4.74,-4.95 -1.34,-12.51 -1.34,-12.51 -1.23,-0.49 -7.13,3.59 -9.03,4.99 -1.9,1.41 -2.18,0 -3.87,-1.2 -1.69,-1.2 -1.67,-2.34 -0.94,-2.99 0.73,-0.65 5.59,-5.8 12.29,-7.71 6.7,-1.91 13.71,-0.12 16.85,1.78zm-29.09 -18.62c7.25,0 33.73,0 39.21,0 5.48,0 15.45,1.06 21.78,8.62 2.05,2.44 3.3,4.65 4.07,6.53 6.93,-3.05 18.9,-3.85 20.59,-3.85 4.45,0 8.91,0 13.36,0 1.68,0 13.66,0.8 20.59,3.85 0.76,-1.89 2.02,-4.09 4.07,-6.53 6.33,-7.56 16.3,-8.62 21.78,-8.62 5.48,0 31.96,0 39.21,0 7.25,0 13.53,2.12 17.67,9.15 4.13,7.03 2.49,11.08 -0.18,26.59 -2.68,15.51 -10.73,23.82 -22.35,26.87 -8.8,2.32 -20.91,1.59 -26.26,1.11l16.81 92.44c0,0 -13.3,32.99 -29.68,41.25 -17.49,8.82 -79.17,8.82 -96.66,0 -16.39,-8.26 -29.68,-41.25 -29.68,-41.25l16.81 -92.44c-5.35,0.49 -17.46,1.21 -26.26,-1.11 -11.62,-3.06 -19.67,-11.36 -22.35,-26.87 -2.68,-15.51 -4.31,-19.56 -0.18,-26.59 4.13,-7.03 10.42,-9.15 17.67,-9.15z"/>
 </g>
</svg>
