<?xml version="1.0" encoding="UTF-8"?>
<!DOCTYPE svg PUBLIC "-//W3C//DTD SVG 1.1//EN" "http://www.w3.org/Graphics/SVG/1.1/DTD/svg11.dtd">
<!-- Creator: CorelDRAW 2021 (64-Bit) -->
<svg xmlns="http://www.w3.org/2000/svg" xml:space="preserve" width="86.608mm" height="13.9492mm" version="1.1" style="shape-rendering:geometricPrecision; text-rendering:geometricPrecision; image-rendering:optimizeQuality; fill-rule:evenodd; clip-rule:evenodd"
viewBox="0 0 1141.72 183.89"
 xmlns:xlink="http://www.w3.org/1999/xlink"
 xmlns:xodm="http://www.corel.com/coreldraw/odm/2003">
 <defs>
  <style type="text/css">
   <![CDATA[
    .fil0 {fill:white}
   ]]>
  </style>
 </defs>
 <g id="Capa_x0020_1">
  <metadata id="CorelCorpID_0Corel-Layer"/>
  <path class="fil0" d="M17.54 56.24c4.75,-5.19 13.25,-25.62 24.74,-28.93 11.48,-3.31 37.11,-8.69 39.28,-8.69 4.09,0 8.19,0 12.28,0 2.17,0 27.8,5.38 39.28,8.69 11.48,3.31 19.99,23.74 24.74,28.93l3.87 16 -7.33 -4.57c0,0 3.01,3.93 7.71,47.44l-6.93 -2.82 0.73 14.96 -6.25 0c0,0 -23.26,25.75 -31.01,34.66 -7.74,8.91 -9.74,13.2 -18.16,13.2 -8.53,0 -17.06,0 -25.59,0 -8.43,0 -10.42,-4.28 -18.17,-13.2 -7.74,-8.91 -31.01,-34.66 -31.01,-34.66l-6.25 0 0.73 -14.96 -6.93 2.82c4.7,-43.51 7.71,-47.44 7.71,-47.44l-7.33 4.57 3.87 -16zm227.46 39.87c0,-4.38 0.57,-8.59 1.69,-12.64 1.12,-4.05 2.69,-7.81 4.71,-11.26 2.02,-3.45 4.45,-6.59 7.28,-9.42 2.83,-2.83 5.97,-5.26 9.45,-7.26 3.47,-2 7.23,-3.55 11.26,-4.64 4.02,-1.09 8.21,-1.64 12.59,-1.64 6.47,0 12.57,1.21 18.26,3.62 5.69,2.4 10.64,5.71 14.85,9.93 4.21,4.21 7.54,9.16 10,14.85 2.45,5.71 3.67,11.85 3.67,18.47 0,4.4 -0.55,8.59 -1.66,12.61 -1.12,4.02 -2.69,7.78 -4.71,11.26 -2.02,3.48 -4.45,6.64 -7.28,9.47 -2.83,2.83 -6,5.26 -9.47,7.28 -3.47,2.02 -7.19,3.59 -11.16,4.69 -3.97,1.09 -8.14,1.64 -12.47,1.64 -4.38,0 -8.57,-0.55 -12.59,-1.64 -4.02,-1.1 -7.78,-2.67 -11.26,-4.69 -3.47,-2.02 -6.62,-4.45 -9.45,-7.28 -2.83,-2.83 -5.26,-6 -7.28,-9.47 -2.02,-3.47 -3.59,-7.23 -4.71,-11.26 -1.12,-4.02 -1.69,-8.21 -1.69,-12.61zm174.6 0c0,-4.38 0.57,-8.59 1.69,-12.64 1.12,-4.05 2.69,-7.81 4.71,-11.26 2.02,-3.45 4.45,-6.59 7.28,-9.42 2.83,-2.83 5.97,-5.26 9.45,-7.26 3.47,-2 7.23,-3.55 11.26,-4.64 4.02,-1.09 8.21,-1.64 12.59,-1.64 6.47,0 12.57,1.21 18.26,3.62 5.69,2.4 10.64,5.71 14.85,9.93 4.21,4.21 7.54,9.16 10,14.85 2.45,5.71 3.67,11.85 3.67,18.47 0,4.4 -0.55,8.59 -1.66,12.61 -1.12,4.02 -2.69,7.78 -4.71,11.26 -2.02,3.48 -4.45,6.64 -7.28,9.47 -2.83,2.83 -6,5.26 -9.47,7.28 -3.47,2.02 -7.19,3.59 -11.16,4.69 -3.97,1.09 -8.14,1.64 -12.47,1.64 -4.38,0 -8.57,-0.55 -12.59,-1.64 -4.02,-1.1 -7.78,-2.67 -11.26,-4.69 -3.47,-2.02 -6.62,-4.45 -9.45,-7.28 -2.83,-2.83 -5.26,-6 -7.28,-9.47 -2.02,-3.47 -3.59,-7.23 -4.71,-11.26 -1.12,-4.02 -1.69,-8.21 -1.69,-12.61zm26.06 0c0,3.14 0.5,6.09 1.48,8.81 0.98,2.74 2.36,5.12 4.14,7.09 1.79,2 3.95,3.59 6.5,4.76 2.55,1.17 5.4,1.74 8.59,1.74 3.09,0 5.9,-0.57 8.4,-1.74 2.5,-1.17 4.62,-2.76 6.36,-4.76 1.74,-1.97 3.07,-4.35 4,-7.09 0.93,-2.71 1.38,-5.67 1.38,-8.81 0,-3.02 -0.45,-5.93 -1.38,-8.69 -0.93,-2.76 -2.26,-5.19 -4,-7.26 -1.74,-2.09 -3.86,-3.76 -6.36,-4.97 -2.5,-1.21 -5.31,-1.81 -8.4,-1.81 -3.19,0 -6.05,0.6 -8.59,1.81 -2.55,1.21 -4.71,2.88 -6.5,4.97 -1.78,2.07 -3.17,4.5 -4.14,7.26 -0.98,2.76 -1.48,5.67 -1.48,8.69zm-85.76 17.04c1.29,1.29 2.69,2.36 4.19,3.24 1.5,0.88 2.93,1.59 4.31,2.14 1.38,0.55 2.59,0.95 3.64,1.19 1.05,0.24 1.76,0.36 2.14,0.36 0.9,0 2.07,-0.05 3.47,-0.12 1.4,-0.07 2.74,-0.28 4.02,-0.64 1.28,-0.36 2.4,-0.93 3.33,-1.74 0.93,-0.81 1.38,-1.95 1.38,-3.43 0,-1.33 -0.26,-2.4 -0.78,-3.19 -0.52,-0.78 -1.29,-1.45 -2.28,-2 -1,-0.55 -2.21,-1.02 -3.67,-1.45 -1.45,-0.43 -3.09,-0.93 -4.9,-1.5 -5.71,-1.52 -10.42,-3.35 -14.14,-5.5 -3.71,-2.14 -6.64,-4.55 -8.81,-7.19 -2.16,-2.64 -3.69,-5.47 -4.55,-8.52 -0.86,-3.05 -1.29,-6.26 -1.29,-9.64 0,-3.95 0.78,-7.54 2.36,-10.78 1.57,-3.24 3.81,-6.02 6.71,-8.33 2.9,-2.31 6.38,-4.09 10.42,-5.35 4.05,-1.26 8.54,-1.88 13.5,-1.88 3,0 5.81,0.24 8.42,0.74 2.62,0.5 5.12,1.29 7.5,2.36 2.38,1.07 4.71,2.45 6.97,4.14 2.26,1.69 4.5,3.71 6.74,6.05 0.81,0.95 1.24,1.83 1.26,2.67 0.02,0.83 -0.52,1.74 -1.62,2.69 -1.86,1.52 -3.62,3.02 -5.31,4.5 -1.69,1.48 -3.45,3.12 -5.26,4.93 -0.57,0.48 -1.14,0.76 -1.71,0.88 -0.57,0.12 -1.12,0.12 -1.64,-0.02 -0.52,-0.14 -1.02,-0.38 -1.5,-0.71 -0.48,-0.33 -0.91,-0.74 -1.29,-1.21 -1.67,-1.86 -3.57,-3.12 -5.71,-3.76 -2.14,-0.64 -4.14,-0.95 -6,-0.95 -2.33,0 -4.19,0.41 -5.57,1.21 -1.38,0.81 -2.02,2.05 -1.93,3.71 0.1,1.24 0.57,2.19 1.41,2.88 0.83,0.69 1.86,1.26 3.07,1.69 1.21,0.43 2.5,0.76 3.86,1.02 1.36,0.26 2.59,0.57 3.74,0.91 4.28,1.38 8.21,2.88 11.78,4.5 3.57,1.62 6.67,3.59 9.28,5.95 2.62,2.36 4.66,5.19 6.12,8.47 1.45,3.28 2.17,7.28 2.17,11.99 0,4.71 -0.93,8.92 -2.81,12.64 -1.88,3.71 -4.47,6.83 -7.76,9.35 -3.29,2.52 -7.16,4.45 -11.66,5.78 -4.5,1.33 -9.35,2 -14.54,2 -2.95,0 -5.95,-0.26 -9,-0.79 -3.05,-0.52 -6,-1.38 -8.85,-2.55 -2.86,-1.17 -5.57,-2.67 -8.14,-4.5 -2.57,-1.83 -4.86,-4.05 -6.85,-6.66 -0.52,-0.67 -0.91,-1.38 -1.17,-2.12 -0.26,-0.74 -0.38,-1.45 -0.36,-2.17 0.02,-0.71 0.17,-1.38 0.43,-1.98 0.26,-0.59 0.67,-1.1 1.24,-1.52l9.21 -9.21c1.14,-0.95 2.17,-1.29 3.05,-1 0.88,0.29 2,1.1 3.38,2.43zm-88.83 -17.04c0,3.14 0.5,6.09 1.48,8.81 0.97,2.74 2.36,5.12 4.14,7.09 1.78,2 3.95,3.59 6.5,4.76 2.55,1.17 5.4,1.74 8.59,1.74 3.1,0 5.9,-0.57 8.4,-1.74 2.5,-1.17 4.62,-2.76 6.36,-4.76 1.74,-1.97 3.07,-4.35 4,-7.09 0.93,-2.71 1.38,-5.67 1.38,-8.81 0,-3.02 -0.45,-5.93 -1.38,-8.69 -0.93,-2.76 -2.26,-5.19 -4,-7.26 -1.74,-2.09 -3.86,-3.76 -6.36,-4.97 -2.5,-1.21 -5.31,-1.81 -8.4,-1.81 -3.19,0 -6.04,0.6 -8.59,1.81 -2.55,1.21 -4.71,2.88 -6.5,4.97 -1.78,2.07 -3.17,4.5 -4.14,7.26 -0.98,2.76 -1.48,5.67 -1.48,8.69zm265.7 -59.57c0,-1.48 0.5,-2.59 1.48,-3.33 0.98,-0.74 2.36,-1.43 4.17,-2.09l16.21 -5.64c0.24,-0.05 0.47,-0.07 0.69,-0.07 0.21,0 0.41,0 0.6,0 1.76,0 2.95,0.5 3.55,1.52 0.59,1.02 0.88,2.38 0.88,4.04l-0.07 19.64 9.78 0c1.52,0 2.76,0.45 3.71,1.36 0.95,0.9 1.43,2.26 1.43,4.07l0 13.78c0,2 -0.47,3.45 -1.43,4.38 -0.95,0.93 -2.19,1.4 -3.71,1.4l-9.78 0 0.07 60.26c0,1.81 -0.52,3.17 -1.57,4.09 -1.05,0.93 -2.5,1.4 -4.36,1.4l-16.14 0c-3.67,0 -5.5,-1.83 -5.5,-5.5l-0.07 -60.26 -7.35 0c-3.67,0 -5.5,-1.93 -5.5,-5.78l0 -13.78c0,-3.62 1.83,-5.43 5.5,-5.43l7.35 0 0.07 -14.07zm533.48 19.47c0,-0.9 0.17,-1.69 0.5,-2.36 0.33,-0.67 0.79,-1.21 1.33,-1.64 0.55,-0.43 1.17,-0.76 1.86,-0.98 0.69,-0.21 1.36,-0.31 2.02,-0.31l10.78 0c1.19,0 2.14,0.36 2.86,1.07 0.71,0.71 1.33,1.62 1.83,2.71 0.5,1.1 0.93,2.31 1.31,3.64 0.38,1.33 0.83,2.62 1.36,3.86 1.43,-1.6 2.86,-3.14 4.26,-4.66 1.4,-1.52 2.9,-2.88 4.52,-4.07 1.62,-1.21 3.4,-2.16 5.33,-2.9 1.93,-0.74 4.12,-1.12 6.59,-1.12 2.57,0 4.88,0.19 6.9,0.57 2.02,0.38 3.93,0.95 5.74,1.69 1.81,0.74 3.62,1.67 5.4,2.83 1.78,1.14 3.71,2.48 5.81,4 2.05,1.19 3.07,2.6 3.07,4.24 0,1.05 -0.4,2.26 -1.21,3.64l-6.5 11.09c-1.29,1.86 -2.88,2.78 -4.78,2.78 -0.95,0 -2.02,-0.26 -3.21,-0.79 -2.05,-2 -4.12,-3.5 -6.23,-4.47 -2.12,-0.98 -4.55,-1.45 -7.26,-1.45 -1.86,0 -3.47,0.26 -4.88,0.79 -1.4,0.52 -2.69,1.26 -3.83,2.21 -1.14,0.95 -2.21,2.1 -3.21,3.43 -1,1.33 -2,2.81 -3,4.43l0 51.69c0,1.81 -0.43,3.17 -1.31,4.09 -0.88,0.93 -2.36,1.4 -4.4,1.4l-16.06 0c-3.71,0 -5.57,-1.83 -5.57,-5.5l0 -79.92zm-11.52 80.11c0,0.81 -0.14,1.57 -0.43,2.31 -0.28,0.74 -0.76,1.33 -1.43,1.76 -0.52,0.52 -1.14,0.86 -1.86,1 -0.71,0.14 -1.33,0.21 -1.86,0.21l-14.07 0c-1,0 -1.81,-0.14 -2.43,-0.4 -0.62,-0.26 -1.12,-0.62 -1.5,-1.1 -0.38,-0.48 -0.69,-1.07 -0.95,-1.76 -0.26,-0.69 -0.55,-1.43 -0.83,-2.24l-0.93 -3.21c-1.29,1.29 -2.74,2.55 -4.38,3.78 -1.64,1.24 -3.45,2.36 -5.43,3.33 -1.98,0.98 -4.09,1.76 -6.35,2.36 -2.26,0.59 -4.62,0.9 -7.04,0.9 -4.33,0 -8.47,-0.55 -12.45,-1.64 -3.97,-1.1 -7.69,-2.67 -11.14,-4.69 -3.45,-2.02 -6.59,-4.45 -9.4,-7.28 -2.81,-2.83 -5.21,-6 -7.24,-9.47 -2.02,-3.47 -3.59,-7.23 -4.69,-11.26 -1.1,-4.02 -1.64,-8.21 -1.64,-12.61 0,-6.62 1.21,-12.76 3.64,-18.47 2.43,-5.69 5.74,-10.64 9.93,-14.85 4.19,-4.21 9.12,-7.52 14.78,-9.93 5.66,-2.4 11.73,-3.62 18.21,-3.62 2.95,0 5.71,0.33 8.26,1 2.55,0.66 4.88,1.57 7,2.71 2.12,1.17 4.02,2.52 5.73,4.12 1.71,1.62 3.21,3.33 4.5,5.21l2.07 -6.57c0.48,-1.19 0.88,-2.17 1.19,-2.93 0.31,-0.74 0.64,-1.29 1,-1.64 0.36,-0.36 0.78,-0.59 1.31,-0.71 0.52,-0.12 1.26,-0.19 2.21,-0.19l10.64 0c0.52,0 1.14,0.07 1.86,0.21 0.71,0.14 1.33,0.48 1.86,1 0.67,0.52 1.14,1.12 1.43,1.78 0.28,0.67 0.43,1.43 0.43,2.28l0 80.59zm-70.33 -40.01c0,3.14 0.5,6.09 1.48,8.81 0.98,2.74 2.36,5.12 4.16,7.09 1.81,2 4,3.59 6.55,4.76 2.55,1.17 5.35,1.74 8.45,1.74 3.19,0 6.16,-0.57 8.9,-1.74 2.74,-1.17 5.12,-2.76 7.14,-4.76 2.02,-1.97 3.59,-4.35 4.74,-7.09 1.14,-2.71 1.71,-5.67 1.71,-8.81 0,-3.02 -0.57,-5.93 -1.71,-8.69 -1.14,-2.76 -2.71,-5.19 -4.74,-7.26 -2.02,-2.09 -4.4,-3.76 -7.14,-4.97 -2.74,-1.21 -5.71,-1.81 -8.9,-1.81 -3.1,0 -5.9,0.6 -8.45,1.81 -2.55,1.21 -4.74,2.88 -6.55,4.97 -1.81,2.07 -3.19,4.5 -4.16,7.26 -0.98,2.76 -1.48,5.67 -1.48,8.69zm-64.35 -66.93c0,-1.52 0.38,-2.81 1.14,-3.86 0.76,-1.05 2.07,-1.57 3.93,-1.57l17.49 0c0.47,0 0.98,0.12 1.5,0.38 0.52,0.26 1.02,0.64 1.48,1.12 0.45,0.48 0.83,1.05 1.14,1.71 0.31,0.67 0.45,1.4 0.45,2.21l0 106.67c0,1.81 -0.5,3.17 -1.52,4.09 -1.02,0.93 -2.36,1.4 -3.97,1.4l-16.57 0c-1.86,0 -3.17,-0.48 -3.93,-1.4 -0.76,-0.93 -1.14,-2.28 -1.14,-4.09l0 -106.67zm-105.26 66.93c0,-4.38 0.57,-8.59 1.69,-12.64 1.12,-4.05 2.69,-7.81 4.71,-11.26 2.02,-3.45 4.45,-6.59 7.28,-9.42 2.83,-2.83 5.97,-5.26 9.45,-7.26 3.47,-2 7.23,-3.55 11.26,-4.64 4.02,-1.09 8.21,-1.64 12.59,-1.64 6.47,0 12.57,1.21 18.26,3.62 5.69,2.4 10.64,5.71 14.85,9.93 4.21,4.21 7.54,9.16 10,14.85 2.45,5.71 3.67,11.85 3.67,18.47 0,4.4 -0.55,8.59 -1.66,12.61 -1.12,4.02 -2.69,7.78 -4.71,11.26 -2.02,3.48 -4.45,6.64 -7.28,9.47 -2.83,2.83 -6,5.26 -9.47,7.28 -3.47,2.02 -7.19,3.59 -11.16,4.69 -3.97,1.09 -8.14,1.64 -12.47,1.64 -4.38,0 -8.57,-0.55 -12.59,-1.64 -4.02,-1.1 -7.78,-2.67 -11.26,-4.69 -3.47,-2.02 -6.62,-4.45 -9.45,-7.28 -2.83,-2.83 -5.26,-6 -7.28,-9.47 -2.02,-3.47 -3.59,-7.23 -4.71,-11.26 -1.12,-4.02 -1.69,-8.21 -1.69,-12.61zm26.06 0c0,3.14 0.5,6.09 1.48,8.81 0.98,2.74 2.36,5.12 4.14,7.09 1.79,2 3.95,3.59 6.5,4.76 2.55,1.17 5.4,1.74 8.59,1.74 3.09,0 5.9,-0.57 8.4,-1.74 2.5,-1.17 4.62,-2.76 6.36,-4.76 1.74,-1.97 3.07,-4.35 4,-7.09 0.93,-2.71 1.38,-5.67 1.38,-8.81 0,-3.02 -0.45,-5.93 -1.38,-8.69 -0.93,-2.76 -2.26,-5.19 -4,-7.26 -1.74,-2.09 -3.86,-3.76 -6.36,-4.97 -2.5,-1.21 -5.31,-1.81 -8.4,-1.81 -3.19,0 -6.05,0.6 -8.59,1.81 -2.55,1.21 -4.71,2.88 -6.5,4.97 -1.78,2.07 -3.17,4.5 -4.14,7.26 -0.98,2.76 -1.48,5.67 -1.48,8.69zm-130.39 -44.65c0.62,-0.52 1.26,-0.86 1.93,-1 0.67,-0.14 1.31,-0.21 1.93,-0.21l10.73 0c0.9,0 1.66,0.14 2.26,0.43 0.57,0.28 1.07,0.69 1.45,1.19 0.38,0.5 0.69,1.07 0.95,1.74 0.26,0.64 0.52,1.36 0.76,2.12l2.98 8.71c1.33,-1.71 2.69,-3.47 4.05,-5.26 1.36,-1.78 2.95,-3.43 4.81,-4.88 1.86,-1.45 4.07,-2.67 6.64,-3.62 2.57,-0.95 5.71,-1.43 9.43,-1.43 6.52,0 12.54,1.21 18.04,3.62 5.5,2.4 10.23,5.71 14.21,9.93 3.97,4.21 7.07,9.16 9.31,14.85 2.24,5.71 3.35,11.85 3.35,18.47 0,6.59 -1.12,12.73 -3.35,18.45 -2.24,5.71 -5.33,10.68 -9.31,14.9 -3.97,4.21 -8.71,7.55 -14.21,9.97 -5.5,2.43 -11.52,3.64 -18.04,3.64 -3.09,0 -5.76,-0.38 -8,-1.12 -2.24,-0.74 -4.21,-1.69 -5.95,-2.88 -1.74,-1.19 -3.28,-2.5 -4.62,-3.93 -1.33,-1.43 -2.64,-2.86 -3.93,-4.28l0 33.27c0,1.43 -0.43,2.64 -1.29,3.64 -0.86,1 -2.19,1.5 -3.97,1.5l-16.3 0c-0.57,0 -1.19,-0.12 -1.86,-0.36 -0.67,-0.24 -1.29,-0.57 -1.86,-1 -0.57,-0.43 -1.05,-0.98 -1.43,-1.62 -0.38,-0.64 -0.57,-1.36 -0.57,-2.17l0 -108.6c0,-0.95 0.19,-1.74 0.55,-2.36 0.36,-0.62 0.78,-1.19 1.31,-1.71zm66.69 44.7c0,-3.05 -0.5,-5.95 -1.5,-8.69 -1,-2.74 -2.4,-5.12 -4.21,-7.16 -1.81,-2.05 -3.97,-3.67 -6.5,-4.86 -2.52,-1.19 -5.31,-1.78 -8.35,-1.78 -3,0 -5.83,0.55 -8.52,1.66 -2.69,1.12 -5.04,2.64 -7.07,4.57 -2.02,1.93 -3.66,4.21 -4.93,6.83 -1.26,2.62 -1.97,5.4 -2.12,8.35l0 1.07c0,3.14 0.59,6.09 1.78,8.85 1.19,2.76 2.81,5.14 4.86,7.16 2.05,2.02 4.45,3.64 7.21,4.83 2.76,1.19 5.69,1.78 8.78,1.78 3.05,0 5.83,-0.59 8.35,-1.78 2.52,-1.19 4.69,-2.81 6.5,-4.83 1.81,-2.02 3.21,-4.4 4.21,-7.16 1,-2.76 1.5,-5.71 1.5,-8.85zm-107.47 -39.91c0,-1.52 0.43,-2.83 1.29,-3.93 0.86,-1.1 2.19,-1.64 4,-1.64l16.35 0c0.57,0 1.19,0.12 1.86,0.38 0.67,0.26 1.29,0.64 1.86,1.14 0.57,0.5 1.07,1.1 1.48,1.76 0.4,0.67 0.59,1.43 0.59,2.28l0 79.61c0,1.81 -0.5,3.17 -1.5,4.09 -1,0.93 -2.43,1.4 -4.28,1.4l-16.35 0c-3.52,0 -5.28,-1.83 -5.28,-5.5l0 -79.61zm0 -36.13c0,-2 0.43,-3.43 1.29,-4.26 0.86,-0.83 2.19,-1.24 4,-1.24l16.56 0c1.67,0 3.02,0.41 4.05,1.24 1.02,0.83 1.52,2.26 1.52,4.26l0 13.92c0,0.57 -0.12,1.19 -0.38,1.86 -0.26,0.67 -0.64,1.31 -1.12,1.93 -0.48,0.62 -1.05,1.12 -1.74,1.52 -0.69,0.4 -1.48,0.62 -2.33,0.62l-16.56 0c-3.52,0 -5.28,-1.97 -5.28,-5.93l0 -13.92zm-82.98 35.89c0,-0.9 0.17,-1.69 0.5,-2.36 0.33,-0.67 0.79,-1.21 1.33,-1.64 0.55,-0.43 1.17,-0.76 1.86,-0.98 0.69,-0.21 1.36,-0.31 2.02,-0.31l10.78 0c1.19,0 2.14,0.36 2.86,1.07 0.71,0.71 1.33,1.62 1.83,2.71 0.5,1.1 0.93,2.31 1.31,3.64 0.38,1.33 0.83,2.62 1.36,3.86 1.43,-1.6 2.86,-3.14 4.26,-4.66 1.4,-1.52 2.9,-2.88 4.52,-4.07 1.62,-1.21 3.41,-2.16 5.33,-2.9 1.93,-0.74 4.12,-1.12 6.59,-1.12 2.57,0 4.88,0.19 6.9,0.57 2.02,0.38 3.93,0.95 5.74,1.69 1.81,0.74 3.62,1.67 5.4,2.83 1.79,1.14 3.71,2.48 5.81,4 2.05,1.19 3.07,2.6 3.07,4.24 0,1.05 -0.41,2.26 -1.21,3.64l-6.5 11.09c-1.29,1.86 -2.88,2.78 -4.78,2.78 -0.95,0 -2.02,-0.26 -3.21,-0.79 -2.05,-2 -4.12,-3.5 -6.24,-4.47 -2.12,-0.98 -4.55,-1.45 -7.26,-1.45 -1.86,0 -3.47,0.26 -4.88,0.79 -1.4,0.52 -2.69,1.26 -3.83,2.21 -1.14,0.95 -2.21,2.1 -3.21,3.43 -1,1.33 -2,2.81 -3,4.43l0 51.69c0,1.81 -0.43,3.17 -1.31,4.09 -0.88,0.93 -2.36,1.4 -4.4,1.4l-16.07 0c-3.71,0 -5.57,-1.83 -5.57,-5.5l0 -79.92zm-489.78 62.94l-26.42 0c-2.68,0 -5.69,-0.35 -5.69,3.44 0,0.27 0.04,0.57 0.11,0.9 0.04,0.09 0.89,2.31 2.59,4.75 1.73,2.49 2.58,3.32 3.19,2.5 0.61,-0.82 3.5,-3.11 5.39,-0.77 1.89,2.34 0.48,5.51 -0.62,5.92 -1.1,0.4 -2.38,0.36 -0.99,2.21 9.37,10.41 9.09,10.41 18.46,0 1.39,-1.85 0.11,-1.81 -0.99,-2.21 -1.1,-0.41 -2.51,-3.58 -0.62,-5.92 1.89,-2.34 4.77,-0.04 5.39,0.77 0.61,0.82 1.46,-0.01 3.19,-2.5 1.7,-2.44 2.55,-4.65 2.59,-4.75 0.07,-0.33 0.11,-0.63 0.11,-0.9 0,-3.79 -3.01,-3.44 -5.69,-3.44zm16.94 -44.13c-1.49,0.91 -7.14,4.83 -7.59,5.45 -0.44,0.62 1.81,2.72 4.5,4.04 2.7,1.31 7.48,1.28 9.74,-1.08 2.26,-2.36 0.64,-5.97 0.64,-5.97 0.58,-0.23 3.4,1.71 4.31,2.38 0.91,0.67 1.04,0 1.84,-0.57 0.81,-0.57 0.79,-1.12 0.45,-1.43 -0.35,-0.31 -2.66,-2.77 -5.86,-3.68 -3.2,-0.91 -6.54,-0.06 -8.03,0.85zm-60.31 0c-1.49,-0.91 -4.84,-1.76 -8.03,-0.85 -3.2,0.91 -5.51,3.37 -5.86,3.68 -0.35,0.31 -0.36,0.86 0.45,1.43 0.8,0.57 0.94,1.24 1.84,0.57 0.91,-0.67 3.72,-2.62 4.31,-2.38 0,0 -1.62,3.61 0.64,5.97 2.26,2.36 7.04,2.39 9.74,1.08 2.7,-1.32 4.94,-3.42 4.5,-4.04 -0.44,-0.62 -6.09,-4.54 -7.59,-5.45zm4.82 -8.88c-2.62,0 -15.24,0 -18.7,0 -3.46,0 -6.45,1.01 -8.42,4.36 -1.97,3.35 -1.19,5.28 0.09,12.68 1.28,7.4 5.12,11.36 10.66,12.81 4.2,1.1 9.97,0.76 12.52,0.53l-8.02 44.08c0,0 6.34,15.73 14.16,19.67 8.34,4.2 37.75,4.2 46.09,0 7.81,-3.94 14.16,-19.67 14.16,-19.67l-8.02 -44.08c2.55,0.23 8.33,0.58 12.52,-0.53 5.54,-1.46 9.38,-5.42 10.66,-12.81 1.27,-7.4 2.06,-9.33 0.09,-12.68 -1.97,-3.35 -4.97,-4.36 -8.42,-4.36 -3.46,0 -16.08,0 -18.7,0 -2.62,0 -7.37,0.5 -10.39,4.11 -0.98,1.16 -1.58,2.22 -1.94,3.12 -3.3,-1.45 -9.01,-1.84 -9.82,-1.84 -2.12,0 -4.25,0 -6.37,0 -0.8,0 -6.51,0.38 -9.82,1.84 -0.36,-0.9 -0.96,-1.95 -1.94,-3.12 -3.02,-3.61 -7.77,-4.11 -10.39,-4.11zm5.07 6.4c2.6,1.78 3.29,4.2 3.34,7.51 0.04,3.32 -2.39,6.57 -5.74,8.96 -3.36,2.39 -5.43,2.8 -6.46,2.8 -1.02,0 -5.66,0 -9.6,0 -3.94,0 -6.85,-3.81 -7.67,-6.22 -0.82,-2.41 -2.42,-9.58 -2.42,-9.58 -0.36,-3.9 3.47,-5.09 4.83,-5.09 1.35,0 9,0 14.21,0 5.21,0 6.92,-0.16 9.52,1.62zm6.7 13.92c1.61,-3.2 1.68,-7.71 1.68,-7.71 5.8,-2.66 17.97,-2.66 23.77,0 0,0 0.07,4.52 1.68,7.71 1.62,3.2 6.58,7.24 6.58,7.24 0,0 -0.17,1.4 0.21,3.42 0.38,2.02 6.9,34.85 7.48,38.52 0.58,3.68 -0.07,4.32 -3.83,11.45 -3.76,7.13 -9.48,7.28 -13.81,7.28l-20.4 0c-4.33,0 -10.05,-0.16 -13.81,-7.28 -3.75,-7.13 -4.41,-7.77 -3.83,-11.45 0.58,-3.68 7.1,-36.5 7.48,-38.52 0.38,-2.02 0.21,-3.42 0.21,-3.42 0,0 4.96,-4.04 6.58,-7.24zm30.49 -6.41c0.04,-3.32 0.73,-5.73 3.34,-7.51 2.6,-1.78 4.32,-1.62 9.52,-1.62 5.2,0 12.85,0 14.21,0 1.35,0 5.19,1.19 4.83,5.09 0,0 -1.6,7.17 -2.42,9.58 -0.82,2.41 -3.73,6.22 -7.67,6.22 -3.94,0 -8.58,0 -9.6,0 -1.02,0 -3.1,-0.41 -6.46,-2.8 -3.36,-2.39 -5.78,-5.64 -5.74,-8.96zm55.5 -36.66c-3.32,-5.58 -7.82,-12.13 -12.96,-16.99 1.95,-3.18 6.3,-8.45 12.74,-6.15 0,0 -8.65,-8.32 -18.43,1.72 -1.17,-0.7 -2.35,-1.29 -3.55,-1.73 -1.33,-0.49 -2.71,-0.98 -4.14,-1.46 9,-16.84 33.25,-10.06 33.25,9.49 0,6.16 -2.71,11.63 -6.93,15.12zm-144.64 -23.15c6.44,-2.3 10.79,2.97 12.74,6.15 -5.13,4.87 -9.63,11.42 -12.96,16.99 -4.22,-3.49 -6.93,-8.97 -6.93,-15.12 0,-10.55 7.97,-19.1 17.8,-19.1 6.61,0 12.38,3.87 15.45,9.61 -1.43,0.48 -2.81,0.96 -4.14,1.46 -1.2,0.45 -2.38,1.03 -3.54,1.74 -9.78,-10.05 -18.43,-1.73 -18.43,-1.73zm44.71 158.69c3.07,3.43 9.3,5.17 13.91,5.17l27.18 0c4.61,0 10.84,-1.74 13.91,-5.17l38.42 -42.83 10.49 0 0 -13.09 7.85 0 -4.63 -36.35 6.48 0 -7.67 -31.93c-0.36,-1.6 -0.75,-2.66 -1.28,-3.69 6.41,-5.15 10.55,-13.36 10.55,-22.61 0,-15.59 -11.78,-28.22 -26.3,-28.22 -10.44,0 -19.47,6.53 -23.71,15.99 -29.76,-8.32 -45.61,-8.32 -75.37,0 -4.25,-9.46 -13.27,-15.99 -23.71,-15.99 -14.53,0 -26.3,12.64 -26.3,28.22 0,9.25 4.15,17.46 10.55,22.61 -0.54,1.02 -0.92,2.08 -1.28,3.69l-7.67 31.93 6.48 0 -4.63 36.35 7.85 0 0 13.09 10.49 0 38.42 42.83z"/>
 </g>
</svg>
