<?xml version="1.0" encoding="UTF-8"?>
<!DOCTYPE svg PUBLIC "-//W3C//DTD SVG 1.1//EN" "http://www.w3.org/Graphics/SVG/1.1/DTD/svg11.dtd">
<!-- Creator: CorelDRAW 2021 (64-Bit) -->
<svg xmlns="http://www.w3.org/2000/svg" xml:space="preserve" width="72.9459mm" height="59.6159mm" version="1.1" style="shape-rendering:geometricPrecision; text-rendering:geometricPrecision; image-rendering:optimizeQuality; fill-rule:evenodd; clip-rule:evenodd"
viewBox="0 0 511.98 418.42"
 xmlns:xlink="http://www.w3.org/1999/xlink"
 xmlns:xodm="http://www.corel.com/coreldraw/odm/2003">
 <defs>
  <style type="text/css">
   <![CDATA[
    .fil0 {fill:white}
   ]]>
  </style>
 </defs>
 <g id="Capa_x0020_1">
  <metadata id="CorelCorpID_0Corel-Layer"/>
  <path class="fil0" d="M139.97 93c7.85,-8.58 21.91,-42.36 40.9,-47.84 18.99,-5.48 61.37,-14.38 64.96,-14.38 6.77,0 13.54,0 20.31,0 3.59,0 45.97,8.9 64.96,14.38 18.99,5.48 33.05,39.26 40.9,47.84l6.4 26.46 -12.13 -7.56c0,0 4.98,6.5 12.76,78.44l-11.46 -4.67 1.2 24.74 -10.33 0c0,0 -38.47,42.57 -51.27,57.31 -12.8,14.74 -16.11,21.82 -30.04,21.82 -14.11,0 -28.21,0 -42.32,0 -13.93,0 -17.24,-7.08 -30.04,-21.82 -12.8,-14.73 -51.27,-57.31 -51.27,-57.31l-10.33 0 1.2 -24.74 -11.46 4.67c7.78,-71.94 12.76,-78.44 12.76,-78.44l-12.13 7.56 6.4 -26.46zm26.61 249.64c0,-0.84 0.29,-1.48 0.84,-1.9 0.56,-0.42 1.34,-0.81 2.38,-1.2l9.25 -3.22c0.14,-0.03 0.27,-0.04 0.39,-0.04 0.12,0 0.23,0 0.34,0 1.01,0 1.69,0.29 2.02,0.87 0.34,0.58 0.5,1.36 0.5,2.31l-0.04 11.21 5.59 0c0.87,0 1.58,0.26 2.12,0.77 0.54,0.52 0.81,1.29 0.81,2.32l0 7.87c0,1.14 -0.27,1.97 -0.81,2.5 -0.54,0.53 -1.25,0.8 -2.12,0.8l-5.59 0 0.04 34.41c0,1.03 -0.3,1.81 -0.9,2.34 -0.6,0.53 -1.43,0.8 -2.49,0.8l-9.21 0c-2.09,0 -3.14,-1.05 -3.14,-3.14l-0.04 -34.41 -4.2 0c-2.09,0 -3.14,-1.1 -3.14,-3.3l0 -7.87c0,-2.07 1.05,-3.1 3.14,-3.1l4.2 0 0.04 -8.03zm304.59 11.12c0,-0.52 0.09,-0.96 0.28,-1.35 0.19,-0.38 0.45,-0.69 0.76,-0.94 0.31,-0.24 0.67,-0.44 1.06,-0.56 0.39,-0.12 0.77,-0.18 1.15,-0.18l6.16 0c0.68,0 1.22,0.2 1.63,0.61 0.41,0.41 0.76,0.92 1.05,1.55 0.28,0.63 0.53,1.32 0.75,2.08 0.22,0.76 0.48,1.5 0.77,2.2 0.82,-0.91 1.63,-1.79 2.43,-2.66 0.8,-0.87 1.66,-1.64 2.58,-2.32 0.92,-0.69 1.94,-1.24 3.04,-1.66 1.1,-0.42 2.35,-0.64 3.76,-0.64 1.47,0 2.79,0.11 3.94,0.33 1.16,0.22 2.24,0.54 3.27,0.96 1.03,0.42 2.07,0.95 3.08,1.62 1.02,0.65 2.12,1.41 3.32,2.28 1.17,0.68 1.75,1.48 1.75,2.42 0,0.6 -0.23,1.29 -0.69,2.08l-3.71 6.33c-0.73,1.06 -1.65,1.59 -2.73,1.59 -0.54,0 -1.15,-0.15 -1.83,-0.45 -1.17,-1.14 -2.35,-2 -3.56,-2.55 -1.21,-0.56 -2.6,-0.83 -4.14,-0.83 -1.06,0 -1.98,0.15 -2.79,0.45 -0.8,0.3 -1.53,0.72 -2.19,1.26 -0.65,0.54 -1.26,1.2 -1.83,1.96 -0.57,0.76 -1.14,1.6 -1.71,2.53l0 29.51c0,1.03 -0.24,1.81 -0.75,2.34 -0.5,0.53 -1.35,0.8 -2.51,0.8l-9.17 0c-2.12,0 -3.18,-1.05 -3.18,-3.14l0 -45.63zm-6.58 45.74c0,0.46 -0.08,0.9 -0.24,1.32 -0.16,0.42 -0.44,0.76 -0.81,1.01 -0.3,0.3 -0.65,0.49 -1.06,0.57 -0.41,0.08 -0.76,0.12 -1.06,0.12l-8.03 0c-0.57,0 -1.03,-0.08 -1.39,-0.23 -0.35,-0.15 -0.64,-0.35 -0.86,-0.63 -0.22,-0.27 -0.39,-0.61 -0.54,-1.01 -0.15,-0.39 -0.31,-0.82 -0.48,-1.28l-0.53 -1.83c-0.73,0.73 -1.56,1.45 -2.5,2.16 -0.94,0.71 -1.97,1.35 -3.1,1.9 -1.13,0.56 -2.34,1.01 -3.63,1.35 -1.29,0.34 -2.64,0.52 -4.02,0.52 -2.47,0 -4.84,-0.31 -7.11,-0.94 -2.27,-0.63 -4.39,-1.52 -6.36,-2.68 -1.97,-1.16 -3.76,-2.54 -5.37,-4.16 -1.6,-1.62 -2.98,-3.42 -4.13,-5.41 -1.15,-1.98 -2.05,-4.13 -2.68,-6.43 -0.63,-2.3 -0.94,-4.69 -0.94,-7.2 0,-3.78 0.69,-7.28 2.08,-10.54 1.39,-3.25 3.27,-6.07 5.67,-8.48 2.39,-2.41 5.2,-4.29 8.44,-5.67 3.23,-1.37 6.7,-2.07 10.4,-2.07 1.68,0 3.26,0.19 4.72,0.57 1.45,0.38 2.79,0.9 3.99,1.55 1.21,0.67 2.3,1.44 3.27,2.35 0.98,0.92 1.83,1.9 2.57,2.98l1.18 -3.75c0.27,-0.68 0.5,-1.24 0.68,-1.67 0.18,-0.42 0.37,-0.73 0.57,-0.94 0.2,-0.2 0.45,-0.34 0.75,-0.41 0.3,-0.07 0.72,-0.11 1.26,-0.11l6.07 0c0.3,0 0.65,0.04 1.06,0.12 0.41,0.08 0.76,0.27 1.06,0.57 0.38,0.3 0.65,0.64 0.81,1.02 0.16,0.38 0.24,0.82 0.24,1.3l0 46.01zm-40.15 -22.84c0,1.79 0.28,3.48 0.84,5.03 0.56,1.56 1.35,2.92 2.38,4.05 1.03,1.14 2.28,2.05 3.74,2.72 1.45,0.67 3.06,0.99 4.82,0.99 1.82,0 3.52,-0.33 5.08,-0.99 1.56,-0.67 2.92,-1.58 4.08,-2.72 1.16,-1.13 2.05,-2.49 2.7,-4.05 0.65,-1.55 0.98,-3.23 0.98,-5.03 0,-1.73 -0.33,-3.38 -0.98,-4.96 -0.65,-1.58 -1.55,-2.96 -2.7,-4.14 -1.15,-1.2 -2.51,-2.15 -4.08,-2.84 -1.56,-0.69 -3.26,-1.03 -5.08,-1.03 -1.77,0 -3.37,0.34 -4.82,1.03 -1.45,0.69 -2.7,1.64 -3.74,2.84 -1.03,1.18 -1.82,2.57 -2.38,4.14 -0.56,1.58 -0.84,3.23 -0.84,4.96zm-36.74 -38.21c0,-0.87 0.22,-1.6 0.65,-2.2 0.44,-0.6 1.18,-0.9 2.24,-0.9l9.99 0c0.27,0 0.56,0.07 0.86,0.22 0.3,0.15 0.58,0.37 0.84,0.64 0.26,0.27 0.48,0.6 0.65,0.98 0.18,0.38 0.26,0.8 0.26,1.26l0 60.9c0,1.03 -0.28,1.81 -0.87,2.34 -0.58,0.53 -1.34,0.8 -2.27,0.8l-9.46 0c-1.06,0 -1.81,-0.27 -2.24,-0.8 -0.43,-0.53 -0.65,-1.3 -0.65,-2.34l0 -60.9zm-60.1 38.21c0,-2.5 0.33,-4.91 0.97,-7.22 0.64,-2.31 1.53,-4.46 2.69,-6.43 1.16,-1.97 2.54,-3.76 4.16,-5.38 1.62,-1.62 3.41,-3 5.4,-4.14 1.98,-1.14 4.13,-2.02 6.43,-2.65 2.3,-0.62 4.69,-0.94 7.19,-0.94 3.7,0 7.18,0.69 10.42,2.07 3.25,1.37 6.07,3.26 8.48,5.67 2.4,2.41 4.31,5.23 5.71,8.48 1.4,3.26 2.09,6.77 2.09,10.54 0,2.51 -0.31,4.91 -0.95,7.2 -0.64,2.3 -1.54,4.44 -2.69,6.43 -1.15,1.98 -2.54,3.79 -4.16,5.41 -1.62,1.62 -3.43,3 -5.41,4.16 -1.98,1.16 -4.1,2.05 -6.37,2.68 -2.27,0.63 -4.65,0.94 -7.12,0.94 -2.5,0 -4.89,-0.31 -7.19,-0.94 -2.3,-0.63 -4.44,-1.52 -6.43,-2.68 -1.98,-1.16 -3.78,-2.54 -5.4,-4.16 -1.62,-1.62 -3,-3.42 -4.16,-5.41 -1.15,-1.98 -2.05,-4.13 -2.69,-6.43 -0.64,-2.3 -0.97,-4.69 -0.97,-7.2zm14.88 0c0,1.79 0.28,3.48 0.84,5.03 0.56,1.56 1.34,2.92 2.36,4.05 1.02,1.14 2.26,2.05 3.71,2.72 1.45,0.67 3.08,0.99 4.91,0.99 1.77,0 3.37,-0.33 4.8,-0.99 1.43,-0.67 2.64,-1.58 3.63,-2.72 0.99,-1.13 1.75,-2.49 2.28,-4.05 0.53,-1.55 0.79,-3.23 0.79,-5.03 0,-1.73 -0.26,-3.38 -0.79,-4.96 -0.53,-1.58 -1.29,-2.96 -2.28,-4.14 -0.99,-1.2 -2.2,-2.15 -3.63,-2.84 -1.43,-0.69 -3.03,-1.03 -4.8,-1.03 -1.82,0 -3.45,0.34 -4.91,1.03 -1.45,0.69 -2.69,1.64 -3.71,2.84 -1.02,1.18 -1.81,2.57 -2.36,4.14 -0.56,1.58 -0.84,3.23 -0.84,4.96zm-74.45 -25.49c0.35,-0.3 0.72,-0.49 1.1,-0.57 0.38,-0.08 0.75,-0.12 1.1,-0.12l6.13 0c0.52,0 0.95,0.08 1.29,0.24 0.33,0.16 0.61,0.39 0.83,0.68 0.22,0.29 0.39,0.61 0.54,0.99 0.15,0.37 0.3,0.77 0.43,1.21l1.7 4.97c0.76,-0.98 1.54,-1.98 2.31,-3 0.77,-1.02 1.68,-1.96 2.74,-2.78 1.06,-0.83 2.32,-1.52 3.79,-2.07 1.47,-0.54 3.26,-0.82 5.38,-0.82 3.72,0 7.16,0.69 10.3,2.07 3.14,1.37 5.84,3.26 8.11,5.67 2.27,2.41 4.04,5.23 5.31,8.48 1.28,3.26 1.92,6.77 1.92,10.54 0,3.76 -0.64,7.27 -1.92,10.53 -1.28,3.26 -3.04,6.1 -5.31,8.51 -2.27,2.41 -4.97,4.31 -8.11,5.69 -3.14,1.39 -6.58,2.08 -10.3,2.08 -1.77,0 -3.29,-0.22 -4.57,-0.64 -1.28,-0.42 -2.41,-0.97 -3.4,-1.64 -0.99,-0.68 -1.87,-1.43 -2.64,-2.24 -0.76,-0.81 -1.51,-1.63 -2.24,-2.45l0 19c0,0.81 -0.24,1.51 -0.73,2.08 -0.49,0.57 -1.25,0.86 -2.27,0.86l-9.31 0c-0.33,0 -0.68,-0.07 -1.06,-0.2 -0.38,-0.14 -0.73,-0.33 -1.06,-0.57 -0.33,-0.24 -0.6,-0.56 -0.81,-0.92 -0.22,-0.37 -0.33,-0.77 -0.33,-1.24l0 -62c0,-0.54 0.11,-0.99 0.31,-1.34 0.2,-0.35 0.45,-0.68 0.75,-0.98zm38.07 25.52c0,-1.74 -0.29,-3.4 -0.86,-4.96 -0.57,-1.56 -1.37,-2.92 -2.41,-4.09 -1.03,-1.17 -2.27,-2.09 -3.71,-2.77 -1.44,-0.68 -3.03,-1.02 -4.77,-1.02 -1.71,0 -3.33,0.31 -4.87,0.95 -1.53,0.64 -2.88,1.51 -4.04,2.61 -1.15,1.1 -2.09,2.41 -2.81,3.9 -0.72,1.49 -1.13,3.08 -1.21,4.77l0 0.61c0,1.79 0.34,3.48 1.02,5.05 0.68,1.58 1.6,2.94 2.77,4.09 1.17,1.15 2.54,2.08 4.12,2.76 1.58,0.68 3.25,1.02 5.01,1.02 1.74,0 3.33,-0.34 4.77,-1.02 1.44,-0.68 2.68,-1.6 3.71,-2.76 1.03,-1.16 1.83,-2.51 2.41,-4.09 0.57,-1.58 0.86,-3.26 0.86,-5.05zm-61.36 -22.79c0,-0.87 0.24,-1.62 0.73,-2.24 0.49,-0.63 1.25,-0.94 2.28,-0.94l9.34 0c0.33,0 0.68,0.07 1.06,0.22 0.38,0.15 0.73,0.37 1.06,0.65 0.33,0.29 0.61,0.63 0.84,1.01 0.23,0.38 0.34,0.81 0.34,1.3l0 45.45c0,1.03 -0.28,1.81 -0.86,2.34 -0.57,0.53 -1.39,0.8 -2.45,0.8l-9.34 0c-2.01,0 -3.02,-1.05 -3.02,-3.14l0 -45.45zm0 -20.63c0,-1.14 0.24,-1.96 0.73,-2.43 0.49,-0.48 1.25,-0.71 2.28,-0.71l9.46 0c0.95,0 1.73,0.23 2.31,0.71 0.58,0.48 0.87,1.29 0.87,2.43l0 7.95c0,0.33 -0.07,0.68 -0.22,1.06 -0.15,0.38 -0.37,0.75 -0.64,1.1 -0.27,0.35 -0.6,0.64 -0.99,0.87 -0.39,0.23 -0.84,0.35 -1.33,0.35l-9.46 0c-2.01,0 -3.02,-1.13 -3.02,-3.38l0 -7.95zm-47.38 20.49c0,-0.52 0.1,-0.96 0.29,-1.35 0.19,-0.38 0.45,-0.69 0.76,-0.94 0.31,-0.24 0.67,-0.44 1.06,-0.56 0.39,-0.12 0.77,-0.18 1.16,-0.18l6.16 0c0.68,0 1.22,0.2 1.63,0.61 0.41,0.41 0.76,0.92 1.05,1.55 0.28,0.63 0.53,1.32 0.75,2.08 0.22,0.76 0.48,1.5 0.77,2.2 0.82,-0.91 1.63,-1.79 2.43,-2.66 0.8,-0.87 1.66,-1.64 2.58,-2.32 0.92,-0.69 1.94,-1.24 3.04,-1.66 1.1,-0.42 2.35,-0.64 3.76,-0.64 1.47,0 2.79,0.11 3.94,0.33 1.16,0.22 2.24,0.54 3.28,0.96 1.03,0.42 2.07,0.95 3.08,1.62 1.02,0.65 2.12,1.41 3.32,2.28 1.17,0.68 1.75,1.48 1.75,2.42 0,0.6 -0.23,1.29 -0.69,2.08l-3.71 6.33c-0.73,1.06 -1.64,1.59 -2.73,1.59 -0.54,0 -1.15,-0.15 -1.83,-0.45 -1.17,-1.14 -2.35,-2 -3.56,-2.55 -1.21,-0.56 -2.6,-0.83 -4.14,-0.83 -1.06,0 -1.98,0.15 -2.79,0.45 -0.8,0.3 -1.54,0.72 -2.19,1.26 -0.65,0.54 -1.26,1.2 -1.83,1.96 -0.57,0.76 -1.14,1.6 -1.71,2.53l0 29.51c0,1.03 -0.24,1.81 -0.75,2.34 -0.5,0.53 -1.34,0.8 -2.51,0.8l-9.17 0c-2.12,0 -3.18,-1.05 -3.18,-3.14l0 -45.63zm-197.37 22.9c0,-2.5 0.33,-4.91 0.97,-7.22 0.64,-2.31 1.54,-4.46 2.69,-6.43 1.16,-1.97 2.54,-3.76 4.16,-5.38 1.62,-1.62 3.41,-3 5.4,-4.14 1.98,-1.14 4.13,-2.02 6.43,-2.65 2.3,-0.62 4.69,-0.94 7.19,-0.94 3.7,0 7.18,0.69 10.42,2.07 3.25,1.37 6.07,3.26 8.48,5.67 2.4,2.41 4.31,5.23 5.71,8.48 1.4,3.26 2.09,6.77 2.09,10.54 0,2.51 -0.31,4.91 -0.95,7.2 -0.64,2.3 -1.54,4.44 -2.69,6.43 -1.15,1.98 -2.54,3.79 -4.16,5.41 -1.62,1.62 -3.42,3 -5.41,4.16 -1.98,1.16 -4.1,2.05 -6.37,2.68 -2.27,0.63 -4.65,0.94 -7.12,0.94 -2.5,0 -4.89,-0.31 -7.19,-0.94 -2.3,-0.63 -4.44,-1.52 -6.43,-2.68 -1.98,-1.16 -3.78,-2.54 -5.4,-4.16 -1.62,-1.62 -3,-3.42 -4.16,-5.41 -1.15,-1.98 -2.05,-4.13 -2.69,-6.43 -0.64,-2.3 -0.97,-4.69 -0.97,-7.2zm99.69 0c0,-2.5 0.33,-4.91 0.97,-7.22 0.64,-2.31 1.54,-4.46 2.69,-6.43 1.16,-1.97 2.54,-3.76 4.16,-5.38 1.62,-1.62 3.41,-3 5.4,-4.14 1.98,-1.14 4.13,-2.02 6.43,-2.65 2.3,-0.62 4.69,-0.94 7.19,-0.94 3.7,0 7.18,0.69 10.42,2.07 3.25,1.37 6.07,3.26 8.48,5.67 2.4,2.41 4.31,5.23 5.71,8.48 1.4,3.26 2.09,6.77 2.09,10.54 0,2.51 -0.31,4.91 -0.95,7.2 -0.64,2.3 -1.54,4.44 -2.69,6.43 -1.15,1.98 -2.54,3.79 -4.16,5.41 -1.62,1.62 -3.42,3 -5.41,4.16 -1.98,1.16 -4.1,2.05 -6.37,2.68 -2.27,0.63 -4.65,0.94 -7.12,0.94 -2.5,0 -4.89,-0.31 -7.19,-0.94 -2.3,-0.63 -4.44,-1.52 -6.43,-2.68 -1.98,-1.16 -3.78,-2.54 -5.4,-4.16 -1.62,-1.62 -3,-3.42 -4.16,-5.41 -1.15,-1.98 -2.05,-4.13 -2.69,-6.43 -0.64,-2.3 -0.97,-4.69 -0.97,-7.2zm14.88 0c0,1.79 0.29,3.48 0.84,5.03 0.56,1.56 1.35,2.92 2.36,4.05 1.02,1.14 2.26,2.05 3.71,2.72 1.45,0.67 3.09,0.99 4.91,0.99 1.77,0 3.37,-0.33 4.8,-0.99 1.43,-0.67 2.64,-1.58 3.63,-2.72 0.99,-1.13 1.75,-2.49 2.28,-4.05 0.53,-1.55 0.79,-3.23 0.79,-5.03 0,-1.73 -0.26,-3.38 -0.79,-4.96 -0.53,-1.58 -1.29,-2.96 -2.28,-4.14 -0.99,-1.2 -2.2,-2.15 -3.63,-2.84 -1.43,-0.69 -3.03,-1.03 -4.8,-1.03 -1.82,0 -3.45,0.34 -4.91,1.03 -1.45,0.69 -2.69,1.64 -3.71,2.84 -1.02,1.18 -1.81,2.57 -2.36,4.14 -0.56,1.58 -0.84,3.23 -0.84,4.96zm-48.97 9.73c0.73,0.73 1.54,1.35 2.39,1.85 0.86,0.5 1.67,0.91 2.46,1.22 0.79,0.31 1.48,0.54 2.08,0.68 0.6,0.14 1.01,0.2 1.22,0.2 0.52,0 1.18,-0.03 1.98,-0.07 0.8,-0.04 1.56,-0.16 2.3,-0.37 0.73,-0.2 1.37,-0.53 1.9,-0.99 0.53,-0.46 0.79,-1.11 0.79,-1.96 0,-0.76 -0.15,-1.37 -0.45,-1.82 -0.3,-0.45 -0.73,-0.83 -1.3,-1.14 -0.57,-0.31 -1.26,-0.58 -2.09,-0.83 -0.83,-0.24 -1.77,-0.53 -2.8,-0.86 -3.26,-0.87 -5.95,-1.92 -8.07,-3.14 -2.12,-1.22 -3.79,-2.6 -5.03,-4.1 -1.24,-1.51 -2.11,-3.13 -2.6,-4.86 -0.49,-1.74 -0.73,-3.57 -0.73,-5.5 0,-2.26 0.45,-4.31 1.35,-6.16 0.9,-1.85 2.17,-3.44 3.83,-4.76 1.66,-1.32 3.64,-2.34 5.95,-3.06 2.31,-0.72 4.88,-1.07 7.7,-1.07 1.71,0 3.32,0.14 4.81,0.42 1.49,0.29 2.92,0.73 4.28,1.34 1.36,0.61 2.69,1.4 3.98,2.36 1.29,0.97 2.57,2.12 3.85,3.45 0.46,0.54 0.71,1.05 0.72,1.52 0.01,0.48 -0.3,0.99 -0.92,1.54 -1.06,0.87 -2.07,1.73 -3.03,2.57 -0.97,0.84 -1.97,1.78 -3,2.81 -0.33,0.27 -0.65,0.44 -0.98,0.5 -0.33,0.07 -0.64,0.07 -0.94,-0.01 -0.3,-0.08 -0.58,-0.22 -0.86,-0.41 -0.27,-0.19 -0.52,-0.42 -0.73,-0.69 -0.95,-1.06 -2.04,-1.78 -3.26,-2.15 -1.22,-0.37 -2.36,-0.54 -3.43,-0.54 -1.33,0 -2.39,0.23 -3.18,0.69 -0.79,0.46 -1.16,1.17 -1.1,2.12 0.05,0.71 0.33,1.25 0.8,1.65 0.47,0.39 1.06,0.72 1.75,0.96 0.69,0.24 1.43,0.43 2.2,0.58 0.77,0.15 1.48,0.33 2.13,0.52 2.45,0.79 4.69,1.64 6.73,2.57 2.04,0.92 3.81,2.05 5.3,3.4 1.49,1.34 2.66,2.96 3.49,4.84 0.83,1.88 1.24,4.16 1.24,6.85 0,2.69 -0.53,5.1 -1.6,7.22 -1.07,2.12 -2.55,3.9 -4.43,5.34 -1.88,1.44 -4.09,2.54 -6.66,3.3 -2.57,0.76 -5.34,1.14 -8.3,1.14 -1.68,0 -3.4,-0.15 -5.14,-0.45 -1.74,-0.3 -3.43,-0.79 -5.06,-1.45 -1.63,-0.67 -3.18,-1.52 -4.65,-2.57 -1.47,-1.05 -2.77,-2.31 -3.91,-3.8 -0.3,-0.38 -0.52,-0.79 -0.67,-1.21 -0.15,-0.42 -0.22,-0.83 -0.2,-1.24 0.01,-0.41 0.1,-0.79 0.24,-1.13 0.15,-0.34 0.38,-0.63 0.71,-0.87l5.26 -5.26c0.65,-0.54 1.24,-0.73 1.74,-0.57 0.5,0.16 1.14,0.63 1.93,1.39zm-50.72 -9.73c0,1.79 0.29,3.48 0.84,5.03 0.56,1.56 1.35,2.92 2.36,4.05 1.02,1.14 2.26,2.05 3.71,2.72 1.45,0.67 3.09,0.99 4.91,0.99 1.77,0 3.37,-0.33 4.8,-0.99 1.43,-0.67 2.64,-1.58 3.63,-2.72 0.99,-1.13 1.75,-2.49 2.28,-4.05 0.53,-1.55 0.79,-3.23 0.79,-5.03 0,-1.73 -0.26,-3.38 -0.79,-4.96 -0.53,-1.58 -1.29,-2.96 -2.28,-4.14 -0.99,-1.2 -2.2,-2.15 -3.63,-2.84 -1.43,-0.69 -3.03,-1.03 -4.8,-1.03 -1.82,0 -3.45,0.34 -4.91,1.03 -1.45,0.69 -2.69,1.64 -3.71,2.84 -1.02,1.18 -1.81,2.57 -2.36,4.14 -0.56,1.58 -0.84,3.23 -0.84,4.96zm262.96 -179.97l-43.69 0c-4.43,0 -9.41,-0.57 -9.41,5.69 0,0.44 0.06,0.94 0.18,1.49 0.06,0.16 1.47,3.82 4.28,7.85 2.87,4.12 4.27,5.49 5.28,4.14 1.01,-1.35 5.79,-5.14 8.91,-1.28 3.12,3.87 0.79,9.11 -1.03,9.79 -1.81,0.67 -3.93,0.6 -1.63,3.66 15.49,17.21 15.03,17.21 30.52,0 2.3,-3.06 0.18,-2.99 -1.63,-3.66 -1.81,-0.67 -4.14,-5.92 -1.03,-9.79 3.12,-3.87 7.89,-0.07 8.91,1.28 1.01,1.35 2.41,-0.02 5.28,-4.14 2.81,-4.03 4.22,-7.69 4.28,-7.85 0.12,-0.55 0.18,-1.05 0.18,-1.49 0,-6.26 -4.98,-5.69 -9.41,-5.69zm28.02 -72.98c-2.47,1.5 -11.82,7.99 -12.55,9.01 -0.73,1.02 2.98,4.5 7.44,6.68 4.46,2.17 12.38,2.12 16.11,-1.78 3.73,-3.9 1.06,-9.87 1.06,-9.87 0.97,-0.39 5.63,2.83 7.12,3.94 1.5,1.11 1.72,0 3.05,-0.94 1.33,-0.94 1.31,-1.85 0.74,-2.36 -0.57,-0.51 -4.41,-4.57 -9.69,-6.08 -5.29,-1.5 -10.81,-0.1 -13.29,1.41zm-99.72 0c-2.47,-1.5 -8,-2.91 -13.29,-1.41 -5.29,1.5 -9.12,5.57 -9.69,6.08 -0.57,0.51 -0.59,1.41 0.74,2.36 1.33,0.94 1.55,2.05 3.05,0.94 1.5,-1.11 6.15,-4.32 7.12,-3.94 0,0 -2.68,5.96 1.06,9.87 3.73,3.9 11.65,3.96 16.11,1.78 4.46,-2.17 8.18,-5.66 7.44,-6.68 -0.73,-1.02 -10.08,-7.5 -12.55,-9.01zm7.98 -14.68c-4.32,0 -25.2,0 -30.92,0 -5.71,0 -10.67,1.67 -13.93,7.22 -3.26,5.55 -1.97,8.74 0.14,20.97 2.11,12.23 8.46,18.78 17.62,21.19 6.94,1.83 16.49,1.26 20.71,0.87l-13.26 72.89c0,0 10.49,26.02 23.41,32.53 13.79,6.95 62.43,6.95 76.22,0 12.92,-6.51 23.41,-32.53 23.41,-32.53l-13.26 -72.89c4.22,0.38 13.77,0.95 20.71,-0.87 9.16,-2.41 15.51,-8.96 17.62,-21.19 2.11,-12.23 3.4,-15.42 0.14,-20.97 -3.26,-5.55 -8.22,-7.22 -13.93,-7.22 -5.72,0 -26.59,0 -30.92,0 -4.32,0 -12.18,0.83 -17.18,6.8 -1.61,1.93 -2.6,3.66 -3.21,5.15 -5.46,-2.4 -14.91,-3.04 -16.23,-3.04 -3.51,0 -7.02,0 -10.54,0 -1.33,0 -10.77,0.63 -16.23,3.04 -0.6,-1.49 -1.59,-3.22 -3.21,-5.15 -4.99,-5.96 -12.85,-6.8 -17.18,-6.8zm8.38 10.58c4.3,2.94 5.45,6.94 5.51,12.42 0.07,5.48 -3.95,10.86 -9.5,14.81 -5.55,3.95 -8.98,4.63 -10.67,4.63 -1.69,0 -9.36,0 -15.88,0 -6.52,0 -11.33,-6.29 -12.68,-10.28 -1.36,-3.99 -4,-15.84 -4,-15.84 -0.6,-6.45 5.74,-8.42 7.98,-8.42 2.24,0 14.89,0 23.49,0 8.61,0 11.44,-0.26 15.74,2.68zm11.07 23.02c2.67,-5.29 2.78,-12.76 2.78,-12.76 9.58,-4.4 29.72,-4.4 39.3,0 0,0 0.11,7.47 2.78,12.76 2.67,5.29 10.87,11.97 10.87,11.97 0,0 -0.28,2.32 0.35,5.66 0.64,3.34 11.41,57.63 12.37,63.7 0.96,6.08 -0.12,7.14 -6.33,18.93 -6.21,11.79 -15.67,12.04 -22.83,12.04l-33.73 0c-7.16,0 -16.62,-0.26 -22.83,-12.04 -6.21,-11.79 -7.29,-12.85 -6.33,-18.93 0.96,-6.08 11.73,-60.36 12.37,-63.7 0.64,-3.34 0.35,-5.66 0.35,-5.66 0,0 8.2,-6.68 10.87,-11.97zm50.42 -10.6c0.07,-5.48 1.21,-9.48 5.51,-12.42 4.3,-2.94 7.14,-2.68 15.74,-2.68 8.61,0 21.26,0 23.49,0 2.24,0 8.58,1.97 7.98,8.42 0,0 -2.64,11.85 -4,15.84 -1.36,3.99 -6.16,10.28 -12.68,10.28 -6.52,0 -14.19,0 -15.88,0 -1.69,0 -5.12,-0.67 -10.67,-4.63 -5.55,-3.95 -9.57,-9.33 -9.5,-14.81zm91.77 -60.62c-5.49,-9.22 -12.93,-20.05 -21.43,-28.1 3.23,-5.27 10.42,-13.98 21.07,-10.18 0,0 -14.3,-13.76 -30.47,2.85 -1.92,-1.16 -3.88,-2.13 -5.86,-2.87 -2.19,-0.81 -4.48,-1.62 -6.84,-2.41 14.88,-27.85 54.99,-16.64 54.99,15.69 0,10.18 -4.49,19.23 -11.46,25.01zm-239.17 -38.28c10.65,-3.8 17.84,4.91 21.07,10.17 -8.49,8.05 -15.93,18.88 -21.42,28.1 -6.97,-5.78 -11.46,-14.83 -11.46,-25.01 0,-17.44 13.18,-31.58 29.43,-31.58 10.93,0 20.48,6.4 25.55,15.89 -2.36,0.79 -4.65,1.59 -6.84,2.41 -1.98,0.74 -3.94,1.71 -5.86,2.87 -16.18,-16.62 -30.47,-2.86 -30.47,-2.86zm73.94 262.4c5.08,5.67 15.39,8.55 23,8.55l44.94 0c7.62,0 17.92,-2.88 23,-8.55l63.53 -70.83 17.34 0 0 -21.65 12.99 0 -7.66 -60.11 10.71 0 -12.69 -52.8c-0.59,-2.65 -1.24,-4.4 -2.12,-6.1 10.59,-8.51 17.45,-22.09 17.45,-37.38 0,-25.77 -19.47,-46.67 -43.5,-46.67 -17.27,0 -32.19,10.8 -39.21,26.45 -49.22,-13.76 -75.41,-13.76 -124.63,0 -7.02,-15.65 -21.94,-26.45 -39.21,-26.45 -24.02,0 -43.49,20.89 -43.49,46.67 0,15.29 6.86,28.87 17.45,37.38 -0.89,1.69 -1.53,3.45 -2.12,6.1l-12.69 52.8 10.71 0 -7.66 60.11 12.99 0 0 21.65 17.34 0 63.53 70.83z"/>
 </g>
</svg>
